<svg xmlns="http://www.w3.org/2000/svg" width="324" height="462" viewBox="0 0 324 462">
    <g fill="#333" fill-rule="evenodd" opacity=".4">
        <path d="M119.772 92.901l-.012.04.038.012.001-.065zM133.444 104.141l.039.205.21-.042-.027-.18zM150.31 113.754l.103.27.432-.06-.117-.294zM169.83 121.916l.156.372.563-.126-.182-.359zM191.158 129.029l.247.421.72-.14-.25-.422zM213.598 135.414l.286.498.798-.18-.301-.46zM236.365 141.6l.26.448.746-.156-.287-.434zM258.504 147.912l.246.422.655-.14-.234-.397zM279.294 154.816l.183.358.484-.086-.156-.372zM92.666 77.617l-.013.104.04.012.038-.117zM98.775 92.71l-.041.375.275.022.027-.401zM108.782 105.817l.024.566.524-.008-.05-.555zM122.441 117.095l.128.707.812-.091-.182-.68zM139.292 126.682l.3.781 1.072-.159-.326-.768zM158.812 134.844l.405.857 1.295-.241-.43-.844zM180.22 141.917l.508.868 1.45-.257-.508-.868zM202.738 148.326l.573.867 1.531-.295-.574-.869zM225.569 154.446l.574.868 1.492-.308-.549-.881zM247.853 160.718l.496.843 1.399-.294-.509-.869zM268.775 167.554l.365.782 1.19-.188-.39-.833zM287.617 175.353l.235.719.98-.146-.273-.73zM79.599 73.191l-.118.286.116.037.119-.286zM81.65 90.223l-.158.66.366.071.132-.647zM87.706 105.342l-.107.893.655.053.067-.904zM97.66 118.476l.024 1.082 1.021-.004-.064-1.095zM111.267 129.78l.246 1.196 1.373-.153-.233-1.168zM128.104 139.341l.457 1.282 1.765-.222-.456-1.282zM147.666 147.516l.638 1.253 1.989-.304-.64-1.253zM169.098 154.575l.795 1.302 2.224-.423-.77-1.251zM191.734 160.956l.848 1.276 2.314-.437-.861-1.302zM214.632 167.012l.847 1.275 2.29-.424-.835-1.316zM237.019 173.23l.77 1.251 2.132-.409-.757-1.226zM258.073 179.999l.626 1.229 1.882-.317-.598-1.24zM277.084 187.745l.403 1.18 1.57-.22-.429-1.167zM293.335 196.799l.22 1.144 1.217-.135-.208-1.12zM306.472 207.507l.01.928.826-.002-.04-.979zM315.944 220.015l-.053.736.484.043.092-.788zM321.713 234.508l-.105.44.235.074.092-.467zM323.647 250.986l-.064.195.065-.002.078-.169zM70.235 66.137l-.236.507.104.14.262-.52zM68.374 85.13l-.316.87.34.148.302-.83zM70.36 102.226l-.316 1.192.68.17.289-1.179zM76.362 117.373l-.197 1.421 1.085.125.146-1.397zM86.24 130.546l.076 1.571 1.529.026-.102-1.558zM99.859 141.875l.311 1.647 2.014-.125-.376-1.643zM116.698 151.437l.612 1.719 2.431-.274-.611-1.652zM136.27 159.637l.834 1.637 2.773-.381-.847-1.663zM157.78 166.657l1.044 1.659 2.956-.475-1.03-1.634zM180.469 173.012l1.11 1.593 3.113-.49-1.136-1.645zM203.485 179.04l1.11 1.593 3.033-.516-1.056-1.619zM226.016 185.216l.992 1.558 2.798-.46-.911-1.598zM247.175 191.932l.796 1.56 2.576-.378-.77-1.574zM266.318 199.61l.534 1.565 2.183-.243-.546-1.59zM282.713 208.625l.298 1.491 1.765-.094-.286-1.531zM295.94 219.252l.064 1.418 1.28-.01-.01-1.444zM305.57 231.746l-.134 1.226.876.103.174-1.28zM311.418 246.198l-.225.984.55.171.236-1.023zM313.456 262.688l-.262.713.274.15.262-.714zM311.804 281.25l-.156.274.079.088.144-.298zM64.196 56.486l-.327.586.09.179.303-.573zM58.763 77.202l-.524.976.26.319.473-1.015zM56.81 96.209l-.55 1.376.573.352.552-1.376zM58.731 113.371l-.46 1.685.98.305.434-1.67zM64.628 128.57l-.236 1.862 1.476.246.24-1.86zM74.545 141.822l.023 1.92 2.014.135-.023-1.987zM88.086 153.126l.403 2.019 2.602-.07-.403-2.018zM104.977 162.726l.73 2.013 3.111-.234-.782-1.985zM124.537 170.9l1.004 1.97 3.57-.37-1.056-2.007zM146.047 177.919l1.266 1.966h.066l3.766-.503.053-.027-1.253-1.939-.105-.01-3.74.486zM168.814 184.236l1.318 1.872.183.036 3.82-.527.064-.066-1.317-1.874-.157-.049-3.82.528zM191.947 190.235l1.279 1.861.184.036 3.792-.516.065-.064-1.317-1.875-.157-.05-3.78.54zM214.61 196.344l1.227 1.888 3.647-.473-1.173-1.915-.038-.011-3.637.498zM235.938 203.005l1.003 1.907 3.296-.39-.965-1.894zM255.2 210.657l.702 1.897 2.837-.254-.65-1.923zM271.776 219.641l.364 1.814 2.302-.079-.324-1.863zM285.136 230.202l.022 1.794 1.792.086-.036-1.82zM294.91 242.654l-.212 1.656 1.254.197.199-1.68zM300.862 257.118l-.382 1.451.797.27.395-1.489zM302.979 273.632l-.486 1.182.484.302.432-1.219zM301.367 292.144l-.42.859.222.24.408-.884zM296.313 312.634l-.183.35.025.117.21-.365zM60.882 44.223l-.353.534.039.206.366-.509zM52.334 66.397l-.602 1.016.155.371.59-.977zM46.822 87.153l-.786 1.432.417.496.787-1.432zM44.804 106.225l-.774 1.78.796.594.788-1.82zM46.686 123.44l-.67 2.05 1.332.544.643-2.1zM52.544 138.693l-.356 2.212 1.922.406.316-2.225zM62.394 151.942l-.015 2.297 2.602.253-.063-2.32zM75.91 163.327l.414 2.237.105.076 3.1.064.09-.08-.44-2.224-.105-.075-3.073-.078zM92.656 173.031l.756 2.064.444.225 3.465-.122.327-.265-.808-2.036-.482-.237-3.4.12zM112.178 181.257l1.003 1.907.837.28 3.648-.28.472-.369-1.043-1.917-.825-.256-3.62.266zM133.74 188.315l1.188 1.812 1.07.291 3.819-.334.577-.487-1.214-1.799-1.058-.33-3.792.386zM156.598 194.616l1.265 1.706 1.19.33 3.871-.426.59-.46-1.266-1.773-1.203-.29-3.87.426zM179.876 200.573l1.266 1.708 1.07.293 3.846-.414.562-.447-1.265-1.772-1.084-.253-3.845.411zM202.604 206.618l1.187 1.748.967.281 3.688-.333.537-.434-1.175-1.787-.966-.28-3.728.385zM224.128 213.213l1.004 1.84.68.233 3.492-.263.392-.33-.951-1.867-.68-.234-3.544.291zM243.624 220.742l.742 1.975.34.15 3.19-.145.236-.184-.715-1.987-.328-.189-3.229.196zM260.464 229.595l.414 2.108 2.864.055-.389-2.186zM273.953 240.154l.01 2.089 2.25.207.003-2.128zM283.844 252.578l-.316 1.966 1.633.36.33-2.005zM289.914 267.013l-.565 1.804 1.098.47.539-1.853zM292.058 283.515l-.642 1.584.678.492.656-1.624zM290.512 302.089l-.643 1.261.353.432.642-1.261zM285.524 322.578l-.5.833.118.296.51-.81zM277.512 344.77l-.198.325.027.115.17-.312zM59.559 29.592l-.21.3v.129l.223-.275zM48.59 52.838l-.642.875.078.411.642-.874zM39.978 75.012l-.904 1.396.26.64.905-1.395zM34.387 95.809l-1.036 1.849.575.738 1.048-1.823zM32.343 114.96l-1.075 2.158 1.096.795 1.023-2.133zM34.158 132.239l-.867 2.376 1.634.746.814-2.349zM39.926 147.506l-.462 2.524 2.34.644.474-2.498-.013-.025-2.312-.659zM49.592 160.914l-.08 2.298.325.317 2.811.404.326-.2.018-2.294-.326-.319-2.745-.405zM63.016 172.378l.311 2.097.783.501 3.191.18.587-.397-.388-2.057-.77-.477-3.125-.245zM79.75 182.12l.676 1.911 1.281.572 3.517.045.825-.582-.742-1.908-1.254-.587-3.466-.006zM99.297 190.334l.925 1.752 1.751.589 3.753-.075 1.021-.714-.991-1.75-1.75-.59-3.714.087zM120.926 197.39l1.134 1.646 2.052.598 3.91-.222 1.125-.766-1.174-1.657-2.078-.585-3.844.22zM143.862 203.65l1.2 1.58 2.21.583 3.962-.246 1.164-.82-1.267-1.579-2.208-.582-3.949.273zM167.165 209.596l1.226 1.566 2.197.557 3.91-.22 1.137-.806-1.224-1.631-2.157-.545-3.911.285zM190.115 215.624l1.11 1.593 1.972.574 3.78-.217 1.047-.727-1.135-1.646-1.934-.56-3.793.256zM211.823 222.189l.952 1.674 1.53.542 3.542-.098.89-.647-.925-1.752-1.53-.542-3.569.176zM231.423 229.666l.691 1.807 1.124.523 3.281.036.72-.529-.624-1.872-1.151-.51-3.282.029zM248.446 238.489l.377 1.967.56.39 2.942.21.485-.343-.338-2.02-.587-.442-2.954-.105zM262.224 248.9l-.004 2.194.197.19 2.496.372.184-.158.069-2.195-.197-.19-2.535-.319zM272.297 261.232l-.369 2.316 2 .56.448-2.356zM278.46 275.653l-.671 2.179 1.412.7.683-2.219zM280.76 292.202l-.853 1.95.85.695.852-1.95zM279.267 310.816l-.905 1.653.482.624.905-1.653zM274.252 331.382l-.734 1.212.182.488.772-1.2zM266.266 353.624l-.485.732.025.307.499-.703zM255.78 377.302l-.092.143.014.09.078-.168zM59.481 12.618l-.104.118.026.05.079-.104zM46.799 36.64l-.537.693v.387l.55-.666zM35.79 59.94l-.994 1.28.13.707.995-1.28zM27.1 82.219l-1.258 1.736.378.935 1.244-1.761zM21.444 103.08l-1.377 2.152.784 1.083 1.337-2.164zM19.308 122.31l-1.272 2.42 1.279 1.088 1.26-2.381zM20.993 139.592l-1.01 2.61.025.115 1.985 1.05.105-.053.958-2.583-.05-.101-1.934-1.079zM26.604 155.068l-.58 2.357.3.523 2.444.785.445-.227.514-2.356-.3-.523-2.378-.786zM36.18 168.49l-.122 2.157.757.774 2.927.57.825-.452.043-2.117-.783-.76-2.81-.598zM49.576 180.03l.284 1.918 1.372.88 3.281.358 1.112-.6-.375-1.901-1.345-.894-3.191-.373zM66.323 189.736l.612 1.718 2.037.959 3.583.172 1.4-.745-.69-1.743-2.026-.934-3.517-.173zM85.83 197.936l.913 1.598 2.652.935 3.858.065 1.636-.865-.965-1.635-2.704-.91-3.78-.04zM107.511 205.03l1.07 1.453 3.123.89 3.961-.053 1.755-.958-1.148-1.477-3.085-.878-3.923.066zM130.486 211.304l1.202 1.385 3.332.848 4.014-.08 1.806-.984-1.24-1.464-3.294-.834-4.013.143zM153.934 217.207l1.2 1.387 3.295.835 3.975-.093 1.779-.971-1.201-1.45-3.267-.848-3.988.13zM177.093 223.193l1.057 1.427 2.942.854 3.856-.064 1.623-.891-1.056-1.492-2.927-.828-3.858.064zM198.919 229.731l.9 1.507 2.468.835 3.596.07 1.48-.85-.86-1.56-2.444-.849-3.622.009zM218.742 237.192l.637 1.639 1.896.871 3.294.192 1.283-.719-.586-1.731-1.856-.86-3.386-.11zM235.948 245.985l.323 1.8 1.162.794 2.982.35.942-.544-.245-1.905-1.176-.755-3.006-.272zM249.87 256.42l-.044 1.987.588.636 2.588.55.668-.372.107-2.053-.6-.66-2.641-.46zM260.191 268.721l-.487 2.214.183.358 2.182.725.315-.16.513-2.292-.21-.344-2.194-.686zM266.602 283.05l-.88 2.414 1.71.963.92-2.466zM268.941 299.61l-1.076 2.225 1.084.962 1.128-2.251zM267.487 318.235l-1.128 1.929.613.944 1.14-1.967zM262.51 338.814l-1.009 1.578.287.756 1.036-1.526zM254.486 361.174l-.774 1.07.118.552.786-1.108zM244.027 384.9l-.42.537.027.309.406-.56zM46.227 18.18l-.406.432.013.283.405-.432zM33.493 42.293l-.851.982.024.632.851-.982zM22.393 65.67l-1.31 1.506.208.99 1.27-1.518zM13.623 87.99l-1.546 2.012.495 1.23 1.573-2.026zM7.902 108.917l-1.652 2.388.966 1.377 1.625-2.374zM5.713 128.173l-1.56 2.632.013.025 1.593 1.444 1.482-2.656-1.501-1.458zM7.163 145.64l-1.09 2.456.143.539 2.051 1.243.498-.189 1.036-2.43-.168-.59-1.973-1.218zM12.695 161.156l-.645 2.164.562.972 2.534.963.903-.364.566-2.19-.548-.944-2.457-1.005zM22.205 174.58l-.173 1.989 1.227 1.178 2.967.777 1.322-.576.094-1.95-1.214-1.218-2.876-.727zM35.55 186.082l.193 1.803 2.01 1.294 3.373.537 1.74-.725-.323-1.736-2.012-1.294-3.28-.552zM52.295 195.851l.534 1.565 2.837 1.295 3.686.376 2.027-.872-.677-1.524-2.81-1.308-3.567-.34zM71.79 204.091l.861 1.431 3.62 1.216 3.91.232 2.302-.915-.94-1.456-3.645-1.268-3.816-.18zM93.577 211.132l1.03 1.312 4.09 1.17 4.08.111 2.395-.993-1.11-1.336-4.079-1.144-4.013-.115zM116.551 217.405l1.162 1.245 4.43 1.125 4.133.087 2.499-1.048-1.188-1.296-4.43-1.126-4.067-.023zM140.196 223.306l1.161 1.243 4.312 1.09 4.054.062 2.447-1.022-1.11-1.271-4.351-1.1-4.067-.024zM163.485 229.29l1.019 1.285 3.96 1.108 3.882.115 2.302-.98-1.002-1.324-3.935-1.121-3.922-.063zM185.481 235.773l.873 1.39 3.358 1.157 3.661.197 2.12-.887-.796-1.431-3.358-1.156-3.739-.158zM205.552 243.268l.6 1.498 2.56 1.144 3.374.344 1.817-.766-.534-1.565-2.534-1.156-3.451-.304zM222.916 252.046l.284 1.66 1.698 1.13 3.046.544 1.504-.669-.192-1.739-1.764-1.131-3.072-.465zM237.032 262.478l-.106 1.86 1.004 1.002 2.64.716 1.1-.495.172-1.925-.992-1.04-2.692-.628zM247.46 274.79l-.5 2.059.456.767 2.195.944.745-.349.568-2.124-.457-.767-2.248-.852zM254.052 289.153l-.944 2.286.103.399 1.789 1.117.302-.12 1.011-2.353-.09-.436-1.857-1.054zM256.615 305.633l-1.298 2.434 1.344 1.28 1.311-2.471zM255.2 324.336l-1.35 2.137.78 1.212 1.365-2.176zM250.249 344.966l-1.284 1.813.404 1.05 1.31-1.826zM242.237 367.35l-1.034 1.332.156.824 1.02-1.359zM231.699 391.182l-.64.81.038.464.628-.771zM219.435 416.088l-.17.183.024.116.132-.196zM32.361 22.344l-.603.63.013.476.629-.642zM19.587 46.446l-1.166 1.27.091.889 1.192-1.22zM8.436 69.915L6.825 71.67l.272 1.247 1.585-1.742zM-.388 92.326l-1.885 2.185.651 1.537L.16 93.85zM-1.8 165.705l-.683 2.024.848 1.405 2.56 1.144 1.413-.398.605-2.049-.835-1.378-2.508-1.17zM7.684 179.143l-.277 1.849 1.684 1.623 3.032.904 1.896-.548.16-1.82-1.684-1.624-2.927-.893zM20.95 190.685l.167 1.623 2.613 1.698 3.45.69 2.329-.67-.259-1.608-2.652-1.71-3.32-.693zM37.697 200.454l.507 1.45 3.606 1.642 3.752.506 2.668-.781-.599-1.434-3.632-1.63-3.66-.519zM57.23 208.707l.783 1.277 4.548 1.55 4 .345 2.944-.824-.861-1.3-4.548-1.55-3.909-.361zM78.964 215.773l.977 1.146 5.23 1.46 4.17.293 3.112-.943-1.07-1.194-5.16-1.462-4.081-.243zM102.162 222.03l1.057 1.105 5.555 1.39 4.17.229 3.205-.957-1.11-1.143-5.514-1.38-4.146-.173zM125.87 227.93l1.084 1.091 5.477 1.366 4.104.228 3.166-.968-1.07-1.13-5.463-1.34-4.132-.215zM149.331 233.924l.991 1.106 4.928 1.387 4 .283 2.97-.901-.978-1.21-4.928-1.387-4.013-.179zM171.561 240.415l.81 1.2 4.207 1.465 3.751.375 2.735-.844-.769-1.317-4.196-1.44-3.79-.258zM191.842 247.867l.56 1.36 3.215 1.454 3.463.523 2.38-.761-.48-1.399-3.227-1.48-3.504-.407zM209.388 256.682l.233 1.493 2.272 1.485 3.11.67 1.99-.627-.155-1.596-2.26-1.46-3.176-.604zM223.636 267.113l-.133 1.678 1.395 1.448 2.706.845 1.597-.491.238-1.798-1.384-1.421-2.783-.806zM234.298 279.435l-.565 1.931.665 1.176 2.273 1.032 1.112-.342.632-1.996-.64-1.125-2.365-1.018zM240.983 293.846L240 295.99l.181.81 1.855 1.31.655-.27 1.062-2.184-.182-.808-1.908-1.22zM243.703 310.377l-1.416 2.396-.014.232 1.462 1.512.17-.055 1.482-2.463-.027-.245-1.488-1.432zM242.403 329.05l-1.586 2.322.927 1.494 1.611-2.335zM237.506 349.718l-1.571 2.026.507 1.32 1.572-2.026zM229.455 372.155l-1.337 1.582.234 1.106 1.324-1.608zM218.879 396.104l-.89 1.034.09.695.863-1.02zM206.573 421.063l-.42.471v.321l.42-.47zM31.637.674l-.222.21v.193l.223-.21zM18 25.151l-.838.813.012.67.839-.813zM5.135 49.331L3.72 50.697l.128 1.158 1.403-1.39zM-7.384 182.308l-.316 1.709 2.075 2.003 3.111 1.058 2.406-.454.186-1.64-2.05-2.018-2.992-1.084zM5.882 193.915l.128 1.482 3.162 1.999 3.529.844 2.877-.564-.272-1.44-3.148-2.038-3.372-.86zM22.563 203.686l.456 1.283 4.39 1.952 3.83.658 3.309-.623-.587-1.28-4.35-2.005-3.725-.646zM42.137 211.95l.73 1.111 5.436 1.87 4.053.512 3.688-.718-.848-1.147-5.423-1.845-3.974-.488zM63.87 219.019l.952 1.029 6.26 1.74 4.223.393 3.897-.76-.992-1.042-6.3-1.752-4.117-.384zM87.119 225.312l1.033.924 6.69 1.683 4.238.354 3.989-.776-1.072-1.001-6.652-1.668-4.223-.33zM111.012 231.182l1.044.951 6.535 1.632 4.198.343 3.936-.75-1.07-1-6.51-1.646-4.21-.304zM134.668 237.173l.94 1.004 5.972 1.63 4.04.422 3.675-.745-.925-1.042-5.935-1.682-4.066-.344zM157.134 243.674l.81 1.07 4.99 1.71 3.792.516 3.375-.687-.704-1.123-5.005-1.735-3.871-.414zM177.584 251.138l.547 1.202 3.92 1.805 3.491.64 3.02-.606-.428-1.296-3.946-1.792-3.622-.572zM195.366 259.96l.168 1.365 2.795 1.797 3.149.813 2.564-.533-.102-1.431-2.783-1.836-3.24-.733zM209.863 270.425l-.199 1.552 1.71 1.737 2.783 1 1.989-.434.276-1.655-1.696-1.713-2.81-.92zM220.604 282.77l-.593 1.816.875 1.52 2.338 1.226 1.531-.362.67-1.855-.875-1.52-2.39-1.133zM227.418 297.246l-1.022 2.004.272 1.182 1.893 1.451 1.033-.235 1.142-2.096-.312-1.196-1.972-1.348zM230.216 313.8l-1.455 2.256.026.631 1.474 1.666.497-.124 1.494-2.309.001-.645-1.527-1.573zM229.14 332.521l-1.834 2.418 1.057 1.814 1.872-2.47zM224.203 353.243l-1.755 2.117.6 1.63 1.767-2.158zM216.14 375.782l-1.534 1.715.3 1.298 1.492-1.728zM205.523 399.783l-1.087 1.167.076.926 1.14-1.192zM193.153 424.807l-.63.644.04.527.614-.669zM179.8 450.492l-.039.053-.013.037.051-.026zM16.809 2.171l-.407.369.012.348.406-.368zM3.066 26.702l-1.06.96.077.862 1.06-.959zM-9.68 195.852l.062 1.353 3.71 2.364 3.581.946 3.44-.367-.181-1.325-3.71-2.363-3.437-.989zM6.987 205.66l.405 1.182 5.081 2.275 3.909.748 3.936-.427-.521-1.153-5.082-2.274-3.778-.815zM26.56 213.925l.719 1.022 6.298 2.139 4.118.64 4.354-.512-.808-1.004-6.299-2.14-4.04-.616zM48.333 221.006l.927.914 7.253 2.006 4.288.522 4.617-.516-.967-.924L57.198 221l-4.183-.51zM71.65 227.299l.99.847 7.778 1.935 4.327.468 4.76-.555-1.071-.873-7.723-1.896-4.288-.457zM95.684 233.192l.993.849 7.62 1.884 4.275.497 4.695-.556-1.032-.86-7.593-1.899-4.276-.43zM119.458 239.22l.928.849 7.018 1.935 4.08.563 4.47-.54-.874-.939-6.992-1.948-4.157-.46zM142.159 245.73l.772.929 5.918 2.042 3.856.646 4.056-.52-.68-1.007-5.88-2.03-3.948-.568zM162.924 253.226l.482 1.075 4.6 2.105 3.554.766 3.558-.461-.391-1.153-4.572-2.118-3.661-.647zM180.901 262.046l.168 1.235 3.266 2.139 3.214.94 3.062-.4-.051-1.328-3.265-2.139-3.32-.822zM195.581 272.545l-.226 1.436 2.037 2.056 2.823 1.141 2.473-.326.328-1.553-2.024-2.03-2.939-1.047zM206.53 284.979l-.668 1.662 1.07 1.839 2.39 1.328 1.896-.225.722-1.754-1.044-1.852-2.47-1.288zM213.437 299.44l-1.062 1.926.35 1.465 1.96 1.58 1.32-.19 1.169-1.98-.391-1.477-2.012-1.488zM216.327 316.109l-1.508 2.154.013.927 1.526 1.768.771-.103 1.548-2.205-.012-.93-1.567-1.715zM215.328 334.855l-1.952 2.38v.193l1.121 2.007.144-.042 1.965-2.418.027-.207-1.174-1.915zM210.458 355.639l-1.965 2.224.69 1.872 2.004-2.277zM202.38 378.217l-1.743 1.822.34 1.568 1.754-1.861zM191.724 402.27l-1.31 1.377.116 1.133 1.335-1.39zM179.261 427.438l-.746.799.026.631.759-.773zM165.832 453.228l-.17.182-.001.13.183-.158zM1.523 2.71l-.538.435.025.438.525-.46zM-8.9 206.635l.35 1.078 5.672 2.525 3.947.889 4.485-.255-.495-1.038-5.644-2.537-3.856-.903zM10.568 214.889l.666.917 7.148 2.449 4.196.73 5.034-.279-.756-.902-7.162-2.409-4.078-.757zM32.366 222.02l.9.797 8.248 2.275 4.353.65 5.348-.309-.94-.809-8.22-2.288-4.3-.612zM55.67 228.287l.979.758 8.965 2.199 4.353.584 5.61-.312-1.017-.77-8.915-2.224-4.34-.56zM79.837 234.244l1.032.73 8.755 2.176 4.315.574 5.504-.325-.98-.757-8.755-2.177-4.328-.532zM104.002 240.265l.915.759 7.867 2.178 4.144.626 5.126-.29-.85-.826-7.866-2.178-4.21-.561zM126.991 246.821l.745.813 6.584 2.251 3.883.762 4.642-.272-.639-.932-6.56-2.264-4.013-.63zM147.926 254.328l.468.985 5.135 2.313 3.607.869 4.094-.25-.351-1.077-5.148-2.338-3.713-.75zM166.15 263.182l.156 1.146 3.63 2.34 3.241 1.054 3.452-.213-.01-1.251-3.605-2.353-3.384-.949zM181.026 273.744l-.237 1.344 2.27 2.259 2.836 1.23 2.839-.19.355-1.437-2.272-2.258-2.98-1.124zM192.067 286.162l-.67 1.597 1.2 2.096 2.417 1.443 2.237-.141.775-1.65-1.2-2.096-2.549-1.377zM199.106 300.749l-1.089 1.81.416 1.723 1.958 1.645 1.595-.106 1.219-1.877-.454-1.735-2.064-1.59zM202.072 317.443l-1.558 2.05.036 1.174 1.553 1.882.955-.067 1.625-2.117-.011-1.186-1.62-1.817zM201.075 336.253l-1.965 2.29-.08.491 1.16 2.084.38-.033 2.005-2.342.118-.479-1.24-2.043zM196.309 357.113l-2.083 2.253.716 2.052 2.134-2.281zM188.191 379.744l-1.86 1.913.376 1.71 1.872-1.888zM177.483 403.89l-1.441 1.44.141 1.314 1.493-1.468zM164.981 429.108l-.89.905.025.761.917-.854zM151.459 454.976l-.275.302v.258l.288-.276zM-5.54 215.17l.613.88 7.788 2.605 4.222.78 5.544-.052-.783-.826-7.723-2.605-4.118-.835zM16.074 222.266l.849.76 9.266 2.528 4.38.701 6.119-.089-.94-.746-9.24-2.541-4.314-.702zM39.416 228.545l.954.707 10.103 2.488 4.418.649 6.342-.105-.953-.706-10.051-2.451-4.392-.662zM63.805 234.55l.993.654 9.828 2.402 4.354.65 6.224-.077-.98-.693-9.776-2.43-4.38-.636zM88.247 240.591l.887.71 8.73 2.382 4.197.729 5.74-.121-.849-.76-8.666-2.384-4.286-.652zM111.587 247.194l.718.762 7.15 2.448 3.933.798 5.1-.084-.64-.868-7.11-2.435-4.05-.707zM132.797 254.722l.468.92 5.488 2.488 3.647.946 4.445-.074-.312-1-5.514-2.476-3.776-.878zM151.193 263.651l.154 1.08 3.88 2.502 3.267 1.106 3.777-.088.003-1.16-3.892-2.529-3.385-1.014zM166.199 274.21l-.264 1.294 2.467 2.448 2.874 1.307 3.099-.065.408-1.4-2.494-2.434-2.992-1.215zM177.384 286.716l-.71 1.52 1.319 2.262 2.443 1.495 2.456-.029.788-1.624-1.278-2.25-2.573-1.428zM184.485 301.302l-1.114 1.76.456 1.927 2.024 1.708 1.805-.017 1.217-1.814-.467-1.952-2.101-1.667zM187.533 318.085l-1.586 2 .024 1.342 1.579 1.933 1.111-.02 1.637-2.025.03-1.368-1.698-1.906zM186.572 336.972l-1.99 2.239-.145.62 1.2 2.16.484-.02 2.07-2.28.079-.62-1.226-2.146zM181.832 357.882l-2.227 2.295.809 2.23 2.265-2.346zM173.689 380.591l-2.003 1.955.428 1.876 2.017-1.993zM162.916 404.802l-1.546 1.495.154 1.405 1.612-1.498zM150.35 430.088l-1.05.983.078.928 1.035-1.01zM136.748 456.06l-.367.38v.323l.393-.329zM-.112 222.136l.835.733 9.867 2.674 4.432.74 6.524.058-.94-.68-9.802-2.74-4.366-.74zM22.994 228.407l.941.681c3.725.904 7.45 1.81 11.136 2.703l4.457.66 7.086.063-.992-.653c-3.699-.92-7.372-1.787-11.044-2.718l-4.444-.7-7.14-.036zM47.657 234.431l.954.642c3.608.87 7.175 1.725 10.756 2.607l4.38.702 6.825.002-.953-.642c-3.555-.894-7.097-1.765-10.666-2.622l-4.43-.673-6.866-.016zM72.53 240.544l.901.669 9.2 2.529 4.237.743 6.105.014-.823-.708-9.175-2.544-4.3-.676zM96.159 247.194l.718.761 7.475 2.507 3.96.85 5.335-.013-.613-.815-7.41-2.507-4.118-.77zM117.59 254.77l.443.868 5.71 2.601 3.686.957 4.642-.012-.326-.961-5.722-2.564-3.792-.904zM136.155 263.708l.13 1.03 4.035 2.616 3.28 1.131 3.91-.027-.011-1.121-3.985-2.578-3.41-1.066zM151.253 274.317l-.277 1.269 2.572 2.525 2.9 1.357 3.217-.028.407-1.335-2.557-2.564-3.02-1.264zM162.556 286.86l-.721 1.495 1.382 2.324 2.442 1.56 2.524-.03.826-1.548-1.33-2.351-2.585-1.454zM169.712 301.484l-1.142 1.774.508 1.965 2.022 1.772 1.897-.033 1.233-1.787-.48-1.978-2.157-1.706zM172.783 318.317l-1.599 1.975-.015 1.458 1.63 1.971 1.217-.006 1.664-2.04.016-1.458-1.71-1.932zM171.836 337.295l-2.016 2.188-.132.712 1.226 2.21.51-.034 2.083-2.254.117-.671-1.264-2.16zM167.11 358.231l-2.306 2.334.859 2.27 2.318-2.31zM158.9 381.006L156.883 383l.404 1.953 2.107-2.01zM148.1 405.293l-1.624 1.537.194 1.48 1.65-1.55zM135.481 430.67l-1.1 1.011.064.967 1.1-1.012zM121.789 456.722l-.445.42.038.399.445-.42zM-15.868 222.012l.836.734 9.776 2.687 4.444.7 6.46.06-.915-.695-9.737-2.675-4.379-.765zM7.487 228.316l.954.708c3.646.88 7.267 1.774 10.913 2.654l4.47.622 6.93.078-.966-.666c-3.633-.855-7.228-1.763-10.848-2.658l-4.47-.687-6.983-.051zM32.255 234.353l.98.629c3.516.883 7.044 1.727 10.547 2.584l4.405.687 6.734.018-.927-.655c-3.503-.857-7.006-1.716-10.535-2.56l-4.47-.686-6.734-.017zM57.14 240.491l.928.656 9.161 2.517 4.261.728 6.108.015-.824-.71-9.162-2.517-4.34-.688zM80.862 247.125l.716.762 7.515 2.52 3.987.835 5.374.002-.6-.79-7.501-2.559-4.079-.757zM102.397 254.712l.456.895 5.748 2.613 3.687.959h4.68l-.3-.976-5.761-2.574-3.83-.917zM121.08 263.688l.14 1.056 4.038 2.615 3.346 1.13 3.909-.025.015-1.136-4.05-2.576-3.437-1.052zM136.282 274.308l-.263 1.295 2.584 2.549 2.888 1.332 3.255-.015.409-1.336-2.56-2.563-3.057-1.277zM147.65 286.916l-.721 1.495 1.382 2.324 2.443 1.558 2.563-.016.813-1.575-1.344-2.311-2.599-1.48zM154.857 301.577l-1.18 1.762.547 1.976 2.023 1.773 1.883.006 1.258-1.8-.494-2.005-2.193-1.718zM157.956 318.462l-1.6 1.973-.027 1.433 1.63 1.972 1.191.006 1.677-2.014.001-1.418-1.709-1.933zM156.983 337.453l-2.018 2.251-.145.686 1.228 2.212.547-.023 2.056-2.24.134-.71-1.304-2.172zM152.242 358.558l-2.291 2.295.846 2.241 2.291-2.295zM144.008 381.344l-2.057 1.982.402 1.954 2.11-2.008zM133.116 405.712l-1.637 1.51.193 1.48 1.664-1.524zM120.392 431.206l-1.074.934.09.953 1.06-.96zM106.66 457.245l-.445.42.012.413.471-.434zM-7.393 228.552l.966.731 9.895 2.404 4.47.621 6.25-.09-.979-.694-9.855-2.39-4.484-.648zM17.362 234.563l1.045.691 9.66 2.395 4.444.635 6.132-.129-.967-.668-9.645-2.367-4.458-.661zM42.17 240.677l.926.72 8.665 2.383 4.261.664 5.689-.095-.81-.748-8.639-2.332-4.366-.675zM65.863 247.324l.744.813 7.162 2.409 4 .797 5.086-.11-.6-.855-7.15-2.382-4.116-.77zM87.478 254.935l.47.921 5.499 2.514 3.686.894 4.446-.075-.34-.988-5.473-2.463-3.869-.864zM106.16 263.911l.143 1.12 3.905 2.489 3.333 1.106 3.779-.09.002-1.16-3.918-2.515-3.439-1.052zM121.415 274.57l-.276 1.332 2.492 2.435 2.902 1.294 3.125-.08.394-1.36-2.466-2.447-3.046-1.253zM132.782 287.175l-.694 1.548 1.317 2.26 2.481 1.507 2.408-.066.838-1.588-1.316-2.26-2.587-1.453zM140.017 301.888l-1.153 1.813.493 1.875 2.05 1.758 1.778-.068 1.272-1.84-.494-1.875-2.181-1.692zM143.114 318.84l-1.572 2.023-.029 1.305 1.658 1.957 1.06-.055 1.689-2.055-.038-1.302-1.697-1.906zM142.142 337.892l-2.017 2.253-.132.583 1.225 2.147.432.004 2.07-2.278.132-.582-1.278-2.12zM137.323 358.972l-2.28 2.322.847 2.18 2.252-2.309zM128.996 381.904l-1.978 1.941.416 1.852 2.03-1.968zM118.092 406.31l-1.611 1.498.22 1.402 1.584-1.484zM105.288 431.844l-1.034.946.09.889 1.035-.946zM91.491 458.014l-.431.382.038.334.406-.367zM2.73 235.35l1.044.755 8.665 2.125 4.432.546 5.414-.31-1.006-.744-8.626-2.114-4.483-.582zM27.524 241.436l.965.796 7.83 2.166 4.26.6 5.088-.304-.875-.81-7.815-2.14-4.366-.611zM51.153 248.086l.782.889 6.561 2.2 4.026.72 4.616-.259-.678-.942-6.522-2.188-4.143-.691zM72.727 255.684l.496 1.037 5.121 2.288 3.7.854 4.053-.262-.378-1.063-5.082-2.276-3.817-.827zM91.423 264.686l.181 1.196 3.658 2.326 3.306.99 3.452-.213.003-1.227-3.632-2.337-3.463-.974zM106.69 275.37l-.25 1.383 2.311 2.272 2.928 1.214 2.837-.188.382-1.452-2.298-2.245-3.046-1.187zM118.098 287.988l-.681 1.637 1.199 2.03 2.482 1.443 2.197-.153.774-1.65-1.174-2.046-2.6-1.414zM125.319 302.74l-1.153 1.877.467 1.694 2.036 1.67 1.584-.13 1.218-1.879-.415-1.72-2.143-1.616zM128.39 319.703l-1.6 2.103v1.16l1.644 1.87.902-.106 1.665-2.105.015-1.135-1.71-1.866zM127.38 338.81l-2.006 2.342-.104.376 1.225 2.082.288-.018 2.044-2.33.105-.375-1.293-2.081zM122.441 359.981l-2.148 2.255.769 2.026 2.147-2.255zM114.102 382.952l-1.9 1.902.377 1.71 1.886-1.929zM103.105 407.437l-1.48 1.43.156 1.276 1.479-1.432zM90.225 433.076l-.904.815.064.772.864-.827zM76.322 459.298l-.262.263-.013.233.3-.25zM-11.747 236.893l1.11.884 7.633 1.846 4.418.455 4.67-.542-1.032-.86-7.633-1.846-4.458-.468zM13.125 243.004l.993.913 6.913 1.86 4.249.508 4.394-.498-.9-.927-6.888-1.872-4.354-.521zM36.754 249.654l.77.993 5.881 1.967 4 .603 4.041-.48-.679-1.008-5.854-1.979-4.13-.601zM58.342 257.278l.508 1.127 4.548 2.001 3.712.75 3.504-.432-.39-1.154-4.547-2.002-3.803-.735zM77.025 266.254l.208 1.313 3.212 2.035 3.307.926 3.034-.385-.076-1.316-3.187-2.05-3.463-.908zM92.228 276.939l-.212 1.526 2.05 2.016 2.94 1.113 2.472-.326.368-1.542-2.062-2.042-3.046-1.057zM103.662 289.608l-.657 1.753 1.03 1.762 2.455 1.327 1.844-.262.787-1.755-1.017-1.737-2.611-1.311zM110.842 304.414l-1.114 1.953.376 1.387 2.024 1.578 1.269-.162 1.218-2.008-.363-1.426-2.129-1.526zM113.848 321.376l-1.547 2.206-.027.853 1.604 1.79.68-.088 1.666-2.234-.012-.863-1.685-1.752zM112.784 340.51l-1.99 2.434-.028.14 1.187 2.007.092-.014 2.07-2.473.026-.142-1.24-1.98zM107.703 361.724l-1.965 2.225.677 1.847 2.017-2.253zM99.298 384.76l-1.756 1.86.35 1.53 1.77-1.836zM88.25 409.336l-1.324 1.35.116 1.134 1.349-1.364zM75.289 435.014l-.786.787.039.658.786-.787zM61.348 461.355l-.223.145.013.155.197-.198z"/>
    </g>
</svg>
