<svg xmlns="http://www.w3.org/2000/svg" width="416" height="416" viewBox="0 0 416 416"> <g fill="#FFF9F9" fill-rule="evenodd" opacity=".4"> <path d="M207.836 215.318c4.129 0 7.476-3.35 7.476-7.484 0-4.132-3.347-7.483-7.476-7.483s-7.476 3.35-7.476 7.483c0 4.134 3.347 7.484 7.476 7.484z"></path> <path d="M222.649 215.442c4.197 0 7.599-3.406 7.599-7.608 0-4.2-3.402-7.606-7.6-7.606-4.196 0-7.598 3.406-7.598 7.606 0 4.202 3.402 7.608 7.599 7.608zM212.414 229.544c4.196 0 7.598-3.406 7.598-7.607 0-4.201-3.402-7.607-7.598-7.607-4.198 0-7.6 3.406-7.6 7.607 0 4.201 3.402 7.607 7.6 7.607zM195.852 223.335a6.781 6.781 0 0 0 6.778-6.785 6.78 6.78 0 0 0-6.778-6.784 6.78 6.78 0 0 0-6.778 6.784 6.781 6.781 0 0 0 6.778 6.785zM195.852 205.862a6.74 6.74 0 0 0 6.736-6.743 6.74 6.74 0 0 0-6.736-6.743 6.74 6.74 0 0 0-6.737 6.743 6.74 6.74 0 0 0 6.737 6.743zM212.414 200.476a6.74 6.74 0 0 0 6.736-6.743 6.74 6.74 0 0 0-6.736-6.744 6.74 6.74 0 0 0-6.737 6.744 6.74 6.74 0 0 0 6.737 6.743zM237.462 214.825a6.987 6.987 0 0 0 6.983-6.99c0-3.86-3.127-6.99-6.983-6.99a6.987 6.987 0 0 0-6.983 6.99c0 3.86 3.127 6.99 6.983 6.99zM231.804 232.38a7.11 7.11 0 0 0 7.106-7.114 7.11 7.11 0 0 0-7.106-7.113 7.11 7.11 0 0 0-7.106 7.113 7.11 7.11 0 0 0 7.106 7.113z"></path> <path d="M216.99 243.153a7.11 7.11 0 0 0 7.107-7.114 7.11 7.11 0 0 0-7.107-7.113c-3.924 0-7.105 3.184-7.105 7.113 0 3.929 3.181 7.114 7.105 7.114zM198.68 243.03a6.987 6.987 0 0 0 6.984-6.99c0-3.86-3.126-6.99-6.983-6.99a6.987 6.987 0 0 0-6.983 6.99c0 3.86 3.126 6.99 6.983 6.99zM183.867 232.05a6.781 6.781 0 0 0 6.778-6.784 6.781 6.781 0 0 0-6.778-6.784 6.782 6.782 0 0 0-6.777 6.784 6.781 6.781 0 0 0 6.777 6.784zM178.209 213.756a5.919 5.919 0 0 0 5.916-5.922c0-3.27-2.649-5.92-5.916-5.92a5.918 5.918 0 0 0-5.915 5.92 5.918 5.918 0 0 0 5.915 5.922zM183.867 196.694a6.288 6.288 0 0 0 6.285-6.29 6.287 6.287 0 0 0-6.285-6.291 6.287 6.287 0 0 0-6.284 6.29 6.288 6.288 0 0 0 6.284 6.291zM198.68 185.551a5.919 5.919 0 0 0 5.916-5.92c0-3.271-2.649-5.921-5.915-5.921a5.918 5.918 0 0 0-5.915 5.92c0 3.27 2.648 5.921 5.915 5.921zM216.99 185.634a6 6 0 0 0 5.998-6.004 6 6 0 0 0-5.998-6.003 6 6 0 0 0-5.996 6.003 6 6 0 0 0 5.996 6.004zM231.804 196.818a6.411 6.411 0 0 0 6.408-6.415 6.411 6.411 0 0 0-6.408-6.414 6.411 6.411 0 0 0-6.408 6.414 6.411 6.411 0 0 0 6.408 6.415zM252.275 214.085a6.247 6.247 0 0 0 6.243-6.25 6.247 6.247 0 0 0-6.243-6.25 6.247 6.247 0 0 0-6.244 6.25 6.248 6.248 0 0 0 6.244 6.25zM248.433 232.22a6.288 6.288 0 0 0 6.285-6.292 6.288 6.288 0 0 0-6.285-6.291 6.288 6.288 0 0 0-6.284 6.291 6.288 6.288 0 0 0 6.284 6.291zM237.571 247.554a6.657 6.657 0 0 0 6.655-6.661c0-3.679-2.98-6.661-6.655-6.661a6.658 6.658 0 0 0-6.654 6.66c0 3.68 2.979 6.662 6.654 6.662zM221.568 256.433a6.288 6.288 0 0 0 6.285-6.291 6.288 6.288 0 0 0-6.285-6.292 6.288 6.288 0 0 0-6.285 6.292 6.288 6.288 0 0 0 6.285 6.29zM203.19 258.325a6.247 6.247 0 0 0 6.244-6.25 6.247 6.247 0 0 0-6.244-6.25 6.246 6.246 0 0 0-6.243 6.25 6.246 6.246 0 0 0 6.243 6.25zM185.616 252.24a5.877 5.877 0 0 0 5.874-5.88c0-3.248-2.63-5.88-5.874-5.88a5.877 5.877 0 0 0-5.874 5.88c0 3.246 2.63 5.88 5.874 5.88zM171.883 239.738a5.754 5.754 0 0 0 5.751-5.756 5.754 5.754 0 0 0-5.75-5.756 5.753 5.753 0 0 0-5.751 5.756 5.754 5.754 0 0 0 5.75 5.756zM164.367 222.346a5.26 5.26 0 0 0 5.259-5.263 5.26 5.26 0 0 0-5.259-5.262 5.26 5.26 0 0 0-5.257 5.262 5.26 5.26 0 0 0 5.257 5.263zM164.367 203.767a5.179 5.179 0 0 0 5.176-5.18 5.178 5.178 0 0 0-5.176-5.181 5.178 5.178 0 0 0-5.175 5.18c0 2.861 2.317 5.181 5.175 5.181zM171.883 186.869a5.179 5.179 0 0 0 5.176-5.181 5.178 5.178 0 0 0-5.176-5.18 5.178 5.178 0 0 0-5.175 5.18c0 2.86 2.317 5.18 5.175 5.18zM185.616 174.943a5.63 5.63 0 0 0 5.627-5.633 5.63 5.63 0 0 0-5.627-5.632 5.63 5.63 0 0 0-5.628 5.632 5.63 5.63 0 0 0 5.628 5.633zM203.19 168.775a5.178 5.178 0 0 0 5.176-5.18 5.178 5.178 0 0 0-5.176-5.181 5.178 5.178 0 0 0-5.175 5.18 5.178 5.178 0 0 0 5.175 5.181zM221.568 170.791a5.261 5.261 0 0 0 5.258-5.263 5.261 5.261 0 0 0-5.258-5.263 5.261 5.261 0 0 0-5.258 5.263 5.261 5.261 0 0 0 5.258 5.263zM237.571 180.533a5.754 5.754 0 0 0 5.751-5.756 5.754 5.754 0 0 0-5.75-5.757 5.754 5.754 0 0 0-5.751 5.757 5.753 5.753 0 0 0 5.75 5.756zM248.433 195.622a5.877 5.877 0 0 0 5.874-5.88c0-3.248-2.63-5.88-5.874-5.88a5.877 5.877 0 0 0-5.874 5.88c0 3.247 2.63 5.88 5.874 5.88zM267.088 213.303a5.465 5.465 0 0 0 5.463-5.469 5.465 5.465 0 0 0-5.463-5.468 5.466 5.466 0 0 0-5.463 5.468 5.466 5.466 0 0 0 5.463 5.47zM264.188 231.714a5.548 5.548 0 0 0 5.546-5.55 5.548 5.548 0 0 0-5.546-5.552 5.548 5.548 0 0 0-5.545 5.551 5.548 5.548 0 0 0 5.545 5.551zM255.772 248.249a5.549 5.549 0 0 0 5.546-5.551 5.549 5.549 0 0 0-5.546-5.552 5.549 5.549 0 0 0-5.546 5.552 5.549 5.549 0 0 0 5.546 5.55zM242.663 261.37a5.548 5.548 0 0 0 5.546-5.55 5.548 5.548 0 0 0-5.546-5.552 5.548 5.548 0 0 0-5.545 5.551 5.548 5.548 0 0 0 5.545 5.551zM226.146 269.794a5.548 5.548 0 0 0 5.545-5.55 5.549 5.549 0 0 0-5.545-5.551 5.548 5.548 0 0 0-5.545 5.551 5.547 5.547 0 0 0 5.545 5.55zM207.836 272.615a5.466 5.466 0 0 0 5.463-5.468 5.466 5.466 0 0 0-5.463-5.469 5.465 5.465 0 0 0-5.463 5.47 5.465 5.465 0 0 0 5.463 5.467zM189.526 269.425a5.178 5.178 0 0 0 5.176-5.181 5.178 5.178 0 0 0-5.176-5.18 5.178 5.178 0 0 0-5.176 5.18 5.178 5.178 0 0 0 5.176 5.18zM173.008 261.165a5.343 5.343 0 0 0 5.34-5.346 5.343 5.343 0 0 0-5.34-5.345 5.343 5.343 0 0 0-5.34 5.345 5.343 5.343 0 0 0 5.34 5.346zM159.9 247.508a4.808 4.808 0 0 0 4.806-4.81 4.81 4.81 0 0 0-4.807-4.812 4.808 4.808 0 0 0-4.805 4.812 4.808 4.808 0 0 0 4.805 4.81zM151.483 230.686a4.521 4.521 0 0 0 4.519-4.523 4.521 4.521 0 0 0-4.519-4.523 4.521 4.521 0 0 0-4.518 4.523 4.521 4.521 0 0 0 4.518 4.523zM148.583 212.358a4.52 4.52 0 0 0 4.519-4.524 4.52 4.52 0 0 0-4.519-4.522 4.52 4.52 0 0 0-4.518 4.522 4.52 4.52 0 0 0 4.518 4.524zM151.483 193.865a4.356 4.356 0 0 0 4.355-4.359 4.356 4.356 0 0 0-4.355-4.358 4.356 4.356 0 0 0-4.354 4.358 4.356 4.356 0 0 0 4.354 4.359zM159.9 177.618a4.644 4.644 0 0 0 4.64-4.646 4.644 4.644 0 0 0-4.64-4.646 4.644 4.644 0 0 0-4.642 4.646 4.644 4.644 0 0 0 4.641 4.646zM173.008 164.497a4.645 4.645 0 0 0 4.642-4.647 4.644 4.644 0 0 0-4.642-4.646 4.644 4.644 0 0 0-4.642 4.646 4.645 4.645 0 0 0 4.642 4.647zM189.526 155.784a4.356 4.356 0 0 0 4.354-4.358 4.356 4.356 0 0 0-4.354-4.359 4.356 4.356 0 0 0-4.354 4.359 4.356 4.356 0 0 0 4.354 4.358zM207.836 153.046a4.52 4.52 0 0 0 4.518-4.524 4.52 4.52 0 0 0-4.518-4.522 4.52 4.52 0 0 0-4.518 4.522 4.52 4.52 0 0 0 4.518 4.524zM226.146 155.949a4.52 4.52 0 0 0 4.518-4.523 4.52 4.52 0 0 0-4.518-4.524 4.521 4.521 0 0 0-4.519 4.524 4.521 4.521 0 0 0 4.519 4.523zM242.663 164.66a4.808 4.808 0 0 0 4.807-4.81 4.81 4.81 0 0 0-4.807-4.81 4.809 4.809 0 0 0-4.805 4.81 4.808 4.808 0 0 0 4.805 4.81zM255.772 178.318a5.343 5.343 0 0 0 5.34-5.346 5.343 5.343 0 0 0-5.34-5.346 5.343 5.343 0 0 0-5.34 5.346 5.343 5.343 0 0 0 5.34 5.346zM264.188 194.687a5.178 5.178 0 0 0 5.176-5.18 5.178 5.178 0 0 0-5.176-5.181 5.178 5.178 0 0 0-5.175 5.18 5.178 5.178 0 0 0 5.175 5.181zM281.902 212.605a4.768 4.768 0 0 0 4.764-4.77 4.768 4.768 0 0 0-4.764-4.77 4.767 4.767 0 0 0-4.765 4.77 4.767 4.767 0 0 0 4.765 4.77zM279.574 231.083a4.808 4.808 0 0 0 4.807-4.81 4.81 4.81 0 0 0-4.807-4.811 4.808 4.808 0 0 0-4.805 4.81 4.808 4.808 0 0 0 4.805 4.811zM272.74 247.952a4.398 4.398 0 0 0 4.395-4.4c0-2.43-1.968-4.4-4.395-4.4a4.397 4.397 0 0 0-4.395 4.4c0 2.43 1.968 4.4 4.395 4.4zM261.827 263.11a4.521 4.521 0 0 0 4.519-4.523 4.521 4.521 0 0 0-4.519-4.523 4.521 4.521 0 0 0-4.518 4.523 4.521 4.521 0 0 0 4.518 4.523zM247.522 275.409a4.973 4.973 0 0 0 4.97-4.975 4.972 4.972 0 0 0-4.97-4.976 4.972 4.972 0 0 0-4.97 4.976 4.973 4.973 0 0 0 4.97 4.975zM230.723 282.993a4.645 4.645 0 0 0 4.642-4.647 4.644 4.644 0 0 0-4.642-4.646 4.644 4.644 0 0 0-4.641 4.646 4.645 4.645 0 0 0 4.641 4.647zM212.486 286.598a4.768 4.768 0 0 0 4.765-4.77 4.767 4.767 0 0 0-4.765-4.769 4.767 4.767 0 0 0-4.764 4.77 4.768 4.768 0 0 0 4.764 4.77zM193.958 285.226a4.562 4.562 0 0 0 4.559-4.564 4.562 4.562 0 0 0-4.56-4.564 4.562 4.562 0 0 0-4.56 4.564 4.562 4.562 0 0 0 4.56 4.564zM176.3 279.154a4.234 4.234 0 0 0 4.231-4.236 4.233 4.233 0 0 0-4.231-4.234 4.232 4.232 0 0 0-4.23 4.234 4.232 4.232 0 0 0 4.23 4.236zM160.625 269.32a4.356 4.356 0 0 0 4.353-4.36 4.356 4.356 0 0 0-4.353-4.358 4.356 4.356 0 0 0-4.355 4.359 4.356 4.356 0 0 0 4.355 4.358zM147.915 255.566a4.151 4.151 0 0 0 4.149-4.152 4.152 4.152 0 0 0-4.149-4.154 4.152 4.152 0 0 0-4.149 4.154 4.151 4.151 0 0 0 4.15 4.152zM138.971 239.568a4.438 4.438 0 0 0 4.436-4.44 4.438 4.438 0 0 0-4.436-4.44 4.438 4.438 0 0 0-4.436 4.44 4.438 4.438 0 0 0 4.436 4.44zM134.354 220.992c2.132 0 3.861-1.73 3.861-3.865a3.863 3.863 0 0 0-3.86-3.865 3.863 3.863 0 0 0-3.862 3.865 3.863 3.863 0 0 0 3.861 3.865zM134.354 202.408a3.864 3.864 0 0 0 3.861-3.866 3.863 3.863 0 0 0-3.86-3.864 3.863 3.863 0 0 0-3.862 3.864 3.864 3.864 0 0 0 3.861 3.866zM138.971 184.654a4.11 4.11 0 0 0 4.108-4.112 4.11 4.11 0 0 0-4.108-4.112 4.11 4.11 0 0 0-4.108 4.112 4.11 4.11 0 0 0 4.108 4.112zM147.915 167.998a3.74 3.74 0 0 0 3.739-3.742 3.74 3.74 0 0 0-3.739-3.742 3.74 3.74 0 0 0-3.737 3.742 3.74 3.74 0 0 0 3.737 3.742zM160.625 154.45a3.74 3.74 0 0 0 3.737-3.741 3.74 3.74 0 0 0-3.737-3.742 3.74 3.74 0 0 0-3.739 3.742 3.74 3.74 0 0 0 3.739 3.741zM176.3 144.862a4.11 4.11 0 0 0 4.108-4.11 4.11 4.11 0 0 0-4.108-4.113 4.11 4.11 0 0 0-4.107 4.112 4.109 4.109 0 0 0 4.107 4.111zM193.958 138.79a3.78 3.78 0 0 0 3.778-3.782 3.78 3.78 0 0 0-3.778-3.783 3.781 3.781 0 0 0-3.78 3.783 3.78 3.78 0 0 0 3.78 3.782zM212.486 137.706a3.863 3.863 0 0 0 3.861-3.865 3.863 3.863 0 0 0-3.86-3.865 3.863 3.863 0 0 0-3.862 3.865 3.864 3.864 0 0 0 3.861 3.865zM230.723 141.147c2.11 0 3.82-1.712 3.82-3.824a3.822 3.822 0 0 0-3.82-3.824 3.822 3.822 0 0 0-3.82 3.824 3.822 3.822 0 0 0 3.82 3.824zM247.522 149.389a4.15 4.15 0 0 0 4.15-4.153 4.15 4.15 0 0 0-4.15-4.153 4.15 4.15 0 0 0-4.148 4.153 4.15 4.15 0 0 0 4.148 4.153zM261.827 161.44a4.356 4.356 0 0 0 4.355-4.358 4.356 4.356 0 0 0-4.355-4.358 4.356 4.356 0 0 0-4.354 4.358 4.356 4.356 0 0 0 4.354 4.359zM272.74 176.353a4.233 4.233 0 0 0 4.231-4.235 4.233 4.233 0 0 0-4.231-4.236 4.233 4.233 0 0 0-4.231 4.236 4.233 4.233 0 0 0 4.231 4.235zM279.574 193.96a4.561 4.561 0 0 0 4.56-4.563c0-2.521-2.041-4.564-4.56-4.564a4.561 4.561 0 0 0-4.559 4.564c0 2.52 2.041 4.564 4.56 4.564zM296.714 211.946a4.11 4.11 0 0 0 4.108-4.112 4.11 4.11 0 0 0-4.108-4.11 4.109 4.109 0 0 0-4.107 4.11 4.11 4.11 0 0 0 4.107 4.112zM294.772 230.444a4.11 4.11 0 0 0 4.108-4.112 4.11 4.11 0 0 0-4.108-4.111 4.11 4.11 0 0 0-4.107 4.111 4.11 4.11 0 0 0 4.107 4.112zM289.03 247.846c2.11 0 3.82-1.712 3.82-3.824a3.822 3.822 0 0 0-3.82-3.824 3.822 3.822 0 0 0-3.82 3.824 3.822 3.822 0 0 0 3.82 3.824zM279.74 264.158a4.028 4.028 0 0 0 4.026-4.03 4.028 4.028 0 0 0-4.026-4.029 4.028 4.028 0 0 0-4.026 4.03 4.028 4.028 0 0 0 4.026 4.03zM267.307 277.98a4.028 4.028 0 0 0 4.026-4.029 4.028 4.028 0 0 0-4.026-4.03 4.028 4.028 0 0 0-4.025 4.03 4.028 4.028 0 0 0 4.025 4.03zM252.275 289.283a4.398 4.398 0 0 0 4.395-4.4c0-2.43-1.968-4.399-4.395-4.399a4.397 4.397 0 0 0-4.395 4.4c0 2.43 1.968 4.4 4.395 4.4zM235.3 296.478a4.028 4.028 0 0 0 4.026-4.03 4.028 4.028 0 0 0-4.025-4.029 4.028 4.028 0 0 0-4.026 4.03 4.028 4.028 0 0 0 4.026 4.03zM217.126 300.427a4.11 4.11 0 0 0 4.108-4.112 4.11 4.11 0 0 0-4.108-4.111 4.11 4.11 0 0 0-4.108 4.111 4.11 4.11 0 0 0 4.108 4.112zM198.546 300.427a4.11 4.11 0 0 0 4.107-4.112 4.11 4.11 0 0 0-4.107-4.111 4.11 4.11 0 0 0-4.108 4.111 4.11 4.11 0 0 0 4.108 4.112zM180.37 296.19a3.74 3.74 0 0 0 3.739-3.741 3.74 3.74 0 0 0-3.739-3.743 3.74 3.74 0 0 0-3.737 3.743 3.74 3.74 0 0 0 3.737 3.741zM163.396 288.749a3.863 3.863 0 0 0 3.862-3.866 3.863 3.863 0 0 0-3.862-3.865 3.863 3.863 0 0 0-3.86 3.865 3.863 3.863 0 0 0 3.86 3.866zM148.364 277.446a3.493 3.493 0 0 0 3.492-3.495 3.493 3.493 0 0 0-3.492-3.495 3.493 3.493 0 0 0-3.491 3.495 3.493 3.493 0 0 0 3.491 3.495zM135.931 263.46a3.329 3.329 0 0 0 3.327-3.331c0-1.84-1.49-3.33-3.327-3.33a3.329 3.329 0 0 0-3.327 3.33c0 1.839 1.49 3.33 3.327 3.33zM126.64 247.64a3.617 3.617 0 0 0 3.616-3.618 3.617 3.617 0 0 0-3.615-3.619 3.617 3.617 0 0 0-3.615 3.619 3.617 3.617 0 0 0 3.615 3.618zM120.9 229.622a3.288 3.288 0 0 0 3.286-3.29 3.288 3.288 0 0 0-3.287-3.289 3.288 3.288 0 0 0-3.286 3.289 3.288 3.288 0 0 0 3.286 3.29zM118.957 211.083a3.247 3.247 0 0 0 3.245-3.249 3.247 3.247 0 0 0-3.245-3.248 3.247 3.247 0 0 0-3.245 3.248 3.247 3.247 0 0 0 3.245 3.25zM120.9 192.545a3.206 3.206 0 0 0 3.203-3.207 3.205 3.205 0 1 0-6.408 0 3.206 3.206 0 0 0 3.204 3.207zM126.64 175.143a3.493 3.493 0 0 0 3.493-3.495 3.493 3.493 0 0 0-3.492-3.495 3.493 3.493 0 0 0-3.491 3.495 3.493 3.493 0 0 0 3.49 3.495zM135.931 158.789a3.247 3.247 0 0 0 3.245-3.248 3.247 3.247 0 0 0-3.245-3.249 3.247 3.247 0 0 0-3.245 3.249 3.247 3.247 0 0 0 3.245 3.248zM148.364 145.049a3.329 3.329 0 0 0 3.327-3.33c0-1.84-1.49-3.331-3.327-3.331a3.329 3.329 0 0 0-3.327 3.33c0 1.84 1.49 3.33 3.327 3.33zM163.396 134.034a3.247 3.247 0 0 0 3.246-3.248 3.247 3.247 0 0 0-3.246-3.248 3.247 3.247 0 0 0-3.245 3.248 3.247 3.247 0 0 0 3.245 3.248zM180.37 126.264c1.68 0 3.04-1.362 3.04-3.043a3.04 3.04 0 0 0-6.08 0 3.04 3.04 0 0 0 3.04 3.043zM198.546 122.602a3.247 3.247 0 0 0 3.244-3.248 3.247 3.247 0 0 0-3.244-3.248 3.247 3.247 0 0 0-3.246 3.248 3.247 3.247 0 0 0 3.246 3.248zM217.126 122.643a3.288 3.288 0 0 0 3.286-3.289 3.288 3.288 0 0 0-3.286-3.29 3.288 3.288 0 0 0-3.286 3.29 3.288 3.288 0 0 0 3.286 3.29zM235.3 126.428a3.206 3.206 0 0 0 3.205-3.207 3.206 3.206 0 0 0-3.204-3.207 3.206 3.206 0 0 0-3.204 3.207 3.206 3.206 0 0 0 3.204 3.207zM252.275 134.405a3.617 3.617 0 0 0 3.615-3.619 3.617 3.617 0 0 0-3.615-3.618 3.616 3.616 0 0 0-3.614 3.618 3.616 3.616 0 0 0 3.614 3.619zM267.307 145.542c2.11 0 3.82-1.712 3.82-3.824a3.822 3.822 0 0 0-3.82-3.824 3.822 3.822 0 0 0-3.82 3.824 3.822 3.822 0 0 0 3.82 3.824zM279.74 159.406a3.863 3.863 0 0 0 3.862-3.865 3.864 3.864 0 0 0-3.862-3.866 3.864 3.864 0 0 0-3.86 3.866 3.863 3.863 0 0 0 3.86 3.865zM289.03 175.39a3.74 3.74 0 0 0 3.739-3.742 3.74 3.74 0 0 0-3.739-3.742 3.74 3.74 0 0 0-3.737 3.742 3.74 3.74 0 0 0 3.737 3.742zM294.772 193.285a3.945 3.945 0 0 0 3.944-3.947 3.946 3.946 0 0 0-3.944-3.948 3.946 3.946 0 0 0-3.943 3.948 3.945 3.945 0 0 0 3.943 3.947zM311.528 211.33a3.493 3.493 0 0 0 3.491-3.496 3.493 3.493 0 0 0-3.491-3.494 3.493 3.493 0 0 0-3.492 3.494 3.493 3.493 0 0 0 3.492 3.496zM309.862 229.863a3.493 3.493 0 0 0 3.49-3.495 3.493 3.493 0 0 0-3.49-3.494 3.493 3.493 0 0 0-3.492 3.494 3.493 3.493 0 0 0 3.492 3.495zM304.916 247.554a3.247 3.247 0 0 0 3.245-3.248 3.247 3.247 0 0 0-3.245-3.248 3.247 3.247 0 0 0-3.246 3.248 3.247 3.247 0 0 0 3.246 3.248zM296.85 264.566a3.493 3.493 0 0 0 3.492-3.494 3.493 3.493 0 0 0-3.492-3.495 3.493 3.493 0 0 0-3.492 3.495 3.493 3.493 0 0 0 3.492 3.494zM285.923 279.745a3.617 3.617 0 0 0 3.615-3.619 3.617 3.617 0 0 0-3.615-3.618 3.617 3.617 0 0 0-3.614 3.618 3.617 3.617 0 0 0 3.614 3.619zM272.486 292.193a3.206 3.206 0 0 0 3.204-3.207 3.206 3.206 0 0 0-3.204-3.208 3.206 3.206 0 0 0-3.204 3.208 3.206 3.206 0 0 0 3.204 3.207zM256.972 303.06c2.11 0 3.82-1.711 3.82-3.823a3.822 3.822 0 0 0-3.82-3.823 3.822 3.822 0 0 0-3.82 3.823 3.822 3.822 0 0 0 3.82 3.824zM239.878 309.963a3.411 3.411 0 0 0 3.41-3.413 3.411 3.411 0 0 0-3.41-3.412 3.411 3.411 0 0 0-3.41 3.412 3.411 3.411 0 0 0 3.41 3.413zM221.754 314.186a3.493 3.493 0 0 0 3.492-3.495 3.493 3.493 0 0 0-3.492-3.494 3.493 3.493 0 0 0-3.49 3.494 3.493 3.493 0 0 0 3.49 3.495zM203.184 315.022a3.493 3.493 0 0 0 3.491-3.496 3.493 3.493 0 0 0-3.491-3.495 3.493 3.493 0 0 0-3.492 3.495 3.493 3.493 0 0 0 3.492 3.496zM184.762 312.4a3.37 3.37 0 0 0 3.368-3.371 3.37 3.37 0 0 0-3.368-3.372 3.37 3.37 0 0 0-3.368 3.372 3.37 3.37 0 0 0 3.368 3.371zM167.082 306.238a2.959 2.959 0 0 0 2.958-2.96 2.96 2.96 0 0 0-2.958-2.96 2.96 2.96 0 0 0-2.957 2.96 2.958 2.958 0 0 0 2.957 2.96zM150.712 297.544c1.702 0 3.08-1.38 3.08-3.084a3.082 3.082 0 1 0-6.16 0 3.082 3.082 0 0 0 3.08 3.084zM136.178 285.9a3.041 3.041 0 0 0 3.04-3.042c0-1.68-1.361-3.043-3.04-3.043a3.041 3.041 0 0 0-3.04 3.043c0 1.68 1.361 3.043 3.04 3.043zM123.947 272.175a3.329 3.329 0 0 0 3.327-3.33c0-1.84-1.49-3.33-3.327-3.33a3.329 3.329 0 0 0-3.327 3.33c0 1.839 1.49 3.33 3.327 3.33zM114.413 255.954c1.7 0 3.08-1.38 3.08-3.084a3.083 3.083 0 0 0-3.08-3.084 3.082 3.082 0 0 0-3.081 3.084 3.082 3.082 0 0 0 3.08 3.084zM107.88 238.162a2.713 2.713 0 0 0 2.712-2.714 2.712 2.712 0 0 0-5.422 0c0 1.5 1.213 2.714 2.71 2.714zM104.562 219.935a2.795 2.795 0 0 0 2.792-2.796 2.795 2.795 0 0 0-2.792-2.796 2.795 2.795 0 0 0-2.794 2.796 2.795 2.795 0 0 0 2.794 2.796zM104.562 201.286a2.754 2.754 0 0 0 0-5.51 2.754 2.754 0 1 0 0 5.51zM107.88 182.811a2.588 2.588 0 0 0 2.588-2.59c0-1.43-1.158-2.59-2.587-2.59a2.59 2.59 0 0 0-2.588 2.59 2.589 2.589 0 0 0 2.588 2.59zM114.413 165.637a2.836 2.836 0 0 0 2.834-2.838 2.836 2.836 0 0 0-2.834-2.837 2.836 2.836 0 0 0-2.835 2.837 2.836 2.836 0 0 0 2.835 2.838zM123.947 149.786a2.96 2.96 0 0 0 2.958-2.961 2.958 2.958 0 1 0-5.915 0 2.96 2.96 0 0 0 2.957 2.96zM136.178 135.443a2.63 2.63 0 0 0 2.63-2.632 2.63 2.63 0 0 0-2.63-2.631 2.63 2.63 0 0 0-2.628 2.631 2.63 2.63 0 0 0 2.628 2.632zM150.712 123.758a2.549 2.549 0 1 0 0-5.098 2.548 2.548 0 0 0-2.546 2.55 2.547 2.547 0 0 0 2.546 2.548zM167.082 115.229a2.836 2.836 0 0 0 2.835-2.838 2.836 2.836 0 0 0-2.835-2.837 2.836 2.836 0 0 0-2.834 2.837 2.836 2.836 0 0 0 2.834 2.838zM184.762 109.354a2.712 2.712 0 0 0 2.71-2.713 2.712 2.712 0 0 0-2.71-2.714 2.712 2.712 0 0 0-2.71 2.714c0 1.499 1.213 2.713 2.71 2.713zM203.184 106.898a2.754 2.754 0 0 0 2.752-2.755 2.754 2.754 0 0 0-2.752-2.755 2.754 2.754 0 0 0-2.753 2.755 2.754 2.754 0 0 0 2.753 2.755zM221.754 107.774a2.795 2.795 0 0 0 2.794-2.796 2.794 2.794 0 1 0-5.586 0 2.795 2.795 0 0 0 2.792 2.796zM239.878 112.326a3.205 3.205 0 0 0 3.204-3.208 3.205 3.205 0 1 0-6.408 0 3.205 3.205 0 0 0 3.204 3.208zM256.972 119.516c1.702 0 3.08-1.38 3.08-3.084a3.082 3.082 0 0 0-3.08-3.083 3.082 3.082 0 0 0-3.08 3.083 3.082 3.082 0 0 0 3.08 3.084zM272.486 129.726c1.68 0 3.04-1.362 3.04-3.042 0-1.68-1.36-3.043-3.04-3.043a3.041 3.041 0 0 0-3.039 3.043c0 1.68 1.361 3.042 3.04 3.042zM285.923 143.038a3.493 3.493 0 0 0 3.491-3.495 3.493 3.493 0 0 0-3.49-3.495 3.493 3.493 0 0 0-3.492 3.495 3.493 3.493 0 0 0 3.491 3.495zM296.85 158.01a3.411 3.411 0 0 0 3.41-3.412 3.411 3.411 0 0 0-3.41-3.413 3.411 3.411 0 0 0-3.41 3.413 3.411 3.411 0 0 0 3.41 3.412zM304.916 174.57a3.206 3.206 0 0 0 3.204-3.207 3.206 3.206 0 0 0-3.204-3.207 3.206 3.206 0 0 0-3.204 3.207 3.206 3.206 0 0 0 3.204 3.207zM309.862 192.673a3.37 3.37 0 0 0 3.368-3.371 3.37 3.37 0 0 0-3.368-3.372 3.37 3.37 0 0 0-3.37 3.372 3.37 3.37 0 0 0 3.37 3.37zM326.34 210.795a2.96 2.96 0 0 0 2.958-2.96 2.959 2.959 0 0 0-2.957-2.96 2.959 2.959 0 0 0-2.958 2.96 2.96 2.96 0 0 0 2.958 2.96zM324.882 229.352a2.959 2.959 0 0 0 2.957-2.96 2.96 2.96 0 0 0-2.957-2.96 2.96 2.96 0 0 0-2.958 2.96 2.96 2.96 0 0 0 2.958 2.96zM320.54 247.246a2.753 2.753 0 0 0 2.753-2.754 2.754 2.754 0 0 0-2.752-2.755 2.754 2.754 0 0 0-2.752 2.755 2.753 2.753 0 0 0 2.752 2.754zM313.425 264.732a3.041 3.041 0 0 0 3.039-3.043 3.041 3.041 0 0 0-6.08 0c0 1.68 1.362 3.043 3.04 3.043zM303.708 280.356a2.794 2.794 0 0 0 2.794-2.796 2.795 2.795 0 0 0-2.794-2.796 2.795 2.795 0 0 0-2.793 2.796 2.794 2.794 0 0 0 2.793 2.796zM291.631 294.593a2.878 2.878 0 0 0 0-5.756 2.876 2.876 0 0 0-2.875 2.877 2.877 2.877 0 0 0 2.875 2.879zM277.491 306.6a2.795 2.795 0 0 0 0-5.592 2.794 2.794 0 0 0-2.793 2.796 2.795 2.795 0 0 0 2.793 2.796zM261.636 316.572a3.04 3.04 0 0 0 3.04-3.042 3.041 3.041 0 0 0-6.08 0 3.04 3.04 0 0 0 3.04 3.042zM244.456 323.408a2.754 2.754 0 0 0 2.752-2.755 2.753 2.753 0 1 0-5.504 0 2.754 2.754 0 0 0 2.752 2.755zM226.374 327.96a2.959 2.959 0 0 0 2.957-2.962 2.959 2.959 0 0 0-2.957-2.96 2.96 2.96 0 0 0-2.957 2.96 2.96 2.96 0 0 0 2.957 2.961zM207.836 329.42a2.96 2.96 0 0 0 2.958-2.96 2.96 2.96 0 0 0-2.958-2.962 2.96 2.96 0 0 0-2.958 2.961 2.959 2.959 0 0 0 2.958 2.96zM189.298 327.877a2.877 2.877 0 0 0 2.875-2.879 2.877 2.877 0 0 0-2.875-2.878 2.877 2.877 0 0 0-2.876 2.878 2.877 2.877 0 0 0 2.876 2.879zM171.216 323.366a2.712 2.712 0 0 0 2.71-2.713 2.712 2.712 0 0 0-2.71-2.714 2.712 2.712 0 0 0-2.711 2.714c0 1.499 1.213 2.713 2.711 2.713zM154.035 316.49a2.96 2.96 0 0 0 2.958-2.96 2.96 2.96 0 0 0-2.958-2.961 2.959 2.959 0 0 0-2.957 2.96 2.959 2.959 0 0 0 2.957 2.961zM138.18 306.23a2.425 2.425 0 0 0 0-4.852 2.425 2.425 0 0 0-2.423 2.426 2.425 2.425 0 0 0 2.423 2.426zM124.04 294.429a2.713 2.713 0 0 0 2.711-2.715 2.712 2.712 0 1 0-5.422 0c0 1.5 1.213 2.715 2.711 2.715zM111.963 280.233a2.671 2.671 0 0 0 2.67-2.673 2.67 2.67 0 1 0-5.34 0 2.672 2.672 0 0 0 2.67 2.673zM102.247 264.156a2.466 2.466 0 0 0 2.464-2.467 2.466 2.466 0 0 0-2.464-2.467 2.466 2.466 0 0 0-2.465 2.467 2.466 2.466 0 0 0 2.465 2.467zM95.13 247.123a2.63 2.63 0 0 0 0-5.263 2.63 2.63 0 0 0 0 5.263zM90.79 228.694c1.27 0 2.3-1.03 2.3-2.302a2.302 2.302 0 0 0-2.3-2.303c-1.27 0-2.3 1.031-2.3 2.303a2.301 2.301 0 0 0 2.3 2.302zM89.33 210.138a2.302 2.302 0 0 0 0-4.606c-1.27 0-2.3 1.031-2.3 2.302a2.302 2.302 0 0 0 2.3 2.304zM90.79 191.54a2.26 2.26 0 0 0 2.259-2.262 2.26 2.26 0 1 0-2.26 2.261zM95.13 173.768c1.43 0 2.588-1.16 2.588-2.59a2.59 2.59 0 0 0-2.588-2.59 2.589 2.589 0 0 0-2.587 2.59 2.588 2.588 0 0 0 2.587 2.59zM102.247 156.406a2.425 2.425 0 0 0 2.423-2.425 2.425 2.425 0 1 0-2.423 2.425zM111.963 140.412c1.27 0 2.3-1.031 2.3-2.302a2.302 2.302 0 0 0-2.3-2.304c-1.27 0-2.3 1.032-2.3 2.304a2.301 2.301 0 0 0 2.3 2.302zM124.04 126.586a2.63 2.63 0 0 0 2.629-2.63 2.63 2.63 0 0 0-2.629-2.633 2.63 2.63 0 0 0-2.629 2.632 2.63 2.63 0 0 0 2.629 2.631zM138.18 114.168a2.302 2.302 0 1 0-.001-4.603 2.302 2.302 0 0 0 .001 4.603zM154.035 104.566a2.424 2.424 0 0 0 2.424-2.426 2.425 2.425 0 0 0-4.847 0 2.424 2.424 0 0 0 2.423 2.426zM171.216 97.607a2.589 2.589 0 0 0 2.587-2.59 2.588 2.588 0 1 0-5.175 0 2.59 2.59 0 0 0 2.588 2.59zM189.298 92.933a2.26 2.26 0 0 0 0-4.523 2.26 2.26 0 0 0-2.26 2.261 2.26 2.26 0 0 0 2.26 2.262zM207.836 91.514c1.27 0 2.3-1.032 2.3-2.304a2.301 2.301 0 1 0-4.6 0 2.302 2.302 0 0 0 2.3 2.304zM226.374 92.974c1.27 0 2.3-1.032 2.3-2.303a2.3 2.3 0 1 0-4.6 0 2.302 2.302 0 0 0 2.3 2.303zM244.456 97.648a2.63 2.63 0 0 0 2.629-2.631 2.63 2.63 0 0 0-2.629-2.632 2.63 2.63 0 0 0-2.629 2.632 2.63 2.63 0 0 0 2.629 2.631zM261.636 104.607a2.466 2.466 0 0 0 0-4.934 2.466 2.466 0 0 0-2.465 2.467 2.466 2.466 0 0 0 2.465 2.467zM277.491 114.538a2.672 2.672 0 0 0 0-5.345 2.671 2.671 0 0 0-2.67 2.673 2.671 2.671 0 0 0 2.67 2.672zM291.631 126.669a2.712 2.712 0 0 0 2.711-2.714c0-1.499-1.213-2.714-2.71-2.714a2.712 2.712 0 0 0-2.711 2.714 2.712 2.712 0 0 0 2.71 2.714zM303.708 140.535a2.425 2.425 0 0 0 0-4.852 2.425 2.425 0 0 0-2.423 2.427 2.425 2.425 0 0 0 2.423 2.425zM313.425 156.94a2.96 2.96 0 0 0 2.957-2.96 2.96 2.96 0 0 0-2.957-2.96 2.96 2.96 0 0 0-2.958 2.96 2.959 2.959 0 0 0 2.958 2.96zM320.54 173.892a2.713 2.713 0 0 0 2.712-2.714 2.712 2.712 0 1 0-5.422 0c0 1.499 1.213 2.714 2.71 2.714zM324.882 192.156a2.877 2.877 0 0 0 2.875-2.878 2.876 2.876 0 1 0-5.75 0 2.877 2.877 0 0 0 2.875 2.878zM341.154 210.302a2.465 2.465 0 0 0 2.464-2.468 2.465 2.465 0 1 0-4.928 0 2.465 2.465 0 0 0 2.464 2.468zM339.857 228.874a2.465 2.465 0 0 0 2.464-2.466 2.466 2.466 0 0 0-2.464-2.467 2.466 2.466 0 0 0-2.465 2.467 2.465 2.465 0 0 0 2.465 2.466zM335.99 246.963c1.292 0 2.34-1.05 2.34-2.344a2.342 2.342 0 0 0-2.34-2.344 2.343 2.343 0 0 0-2.342 2.344 2.343 2.343 0 0 0 2.342 2.344zM329.628 264.746a2.63 2.63 0 0 0 2.629-2.632 2.63 2.63 0 0 0-2.629-2.63 2.63 2.63 0 0 0-2.629 2.63 2.63 2.63 0 0 0 2.629 2.632zM320.896 280.98a2.424 2.424 0 0 0 2.423-2.426 2.424 2.424 0 1 0-4.846 0 2.424 2.424 0 0 0 2.423 2.425zM309.963 296.083a2.466 2.466 0 0 0 2.465-2.467 2.466 2.466 0 0 0-2.465-2.467 2.466 2.466 0 0 0-2.464 2.467 2.466 2.466 0 0 0 2.464 2.467zM297.043 309.476a2.466 2.466 0 0 0 2.464-2.467 2.466 2.466 0 0 0-2.464-2.467 2.466 2.466 0 0 0-2.465 2.467 2.466 2.466 0 0 0 2.465 2.467zM282.386 320.898a2.425 2.425 0 0 0 2.424-2.426 2.425 2.425 0 0 0-2.424-2.426 2.425 2.425 0 0 0-2.423 2.426 2.425 2.425 0 0 0 2.423 2.426zM266.278 330.412a2.63 2.63 0 0 0 2.63-2.631 2.63 2.63 0 1 0-5.258 0 2.63 2.63 0 0 0 2.628 2.631zM249.034 337.1c1.292 0 2.34-1.05 2.34-2.345a2.342 2.342 0 1 0-4.682 0 2.343 2.343 0 0 0 2.342 2.344zM230.986 341.726a2.465 2.465 0 0 0 2.464-2.467 2.465 2.465 0 1 0-4.928 0 2.465 2.465 0 0 0 2.464 2.467zM212.489 343.673a2.466 2.466 0 0 0 2.464-2.467 2.466 2.466 0 0 0-2.464-2.468 2.466 2.466 0 0 0-2.465 2.468 2.466 2.466 0 0 0 2.465 2.467zM193.9 342.982a2.425 2.425 0 1 0 0-4.852 2.425 2.425 0 0 0-2.423 2.426 2.424 2.424 0 0 0 2.423 2.426zM175.583 339.626c1.27 0 2.3-1.032 2.3-2.303a2.302 2.302 0 0 0-2.3-2.303c-1.27 0-2.3 1.031-2.3 2.303a2.301 2.301 0 0 0 2.3 2.303zM157.894 333.707a2.137 2.137 0 1 0-2.136-2.138c0 1.181.956 2.138 2.136 2.138zM141.177 325.71c1.27 0 2.3-1.03 2.3-2.302a2.302 2.302 0 1 0-4.601 0 2.302 2.302 0 0 0 2.3 2.302zM125.757 315.422a2.425 2.425 0 0 0 2.423-2.425 2.425 2.425 0 0 0-2.423-2.427 2.425 2.425 0 0 0-2.423 2.427 2.425 2.425 0 0 0 2.423 2.425zM111.934 302.923a2.384 2.384 0 0 0 2.383-2.385 2.384 2.384 0 1 0-2.383 2.385zM99.98 288.538a2.26 2.26 0 0 0 0-4.524 2.26 2.26 0 0 0-2.26 2.262 2.26 2.26 0 0 0 2.26 2.262zM90.122 272.542a2.055 2.055 0 1 0 0-4.11 2.055 2.055 0 0 0 0 4.11zM82.558 255.698a2.22 2.22 0 0 0 0-4.44 2.22 2.22 0 0 0 0 4.44zM77.431 237.473a1.89 1.89 0 0 0 1.889-1.892 1.89 1.89 0 1 0-3.778 0 1.89 1.89 0 0 0 1.89 1.892zM74.842 219.077c1.067 0 1.93-.866 1.93-1.933a1.932 1.932 0 1 0-1.93 1.933zM74.842 200.458c1.067 0 1.93-.865 1.93-1.932a1.932 1.932 0 1 0-1.93 1.932zM77.431 181.898a1.808 1.808 0 1 0-.002-3.617 1.808 1.808 0 0 0 .002 3.617zM82.558 164.247c1.134 0 2.053-.92 2.053-2.056a2.055 2.055 0 1 0-2.053 2.056zM90.122 147.033a1.849 1.849 0 1 0 0-3.698 1.849 1.849 0 0 0 0 3.698zM99.98 131.367a1.973 1.973 0 0 0 1.97-1.973 1.972 1.972 0 1 0-3.943 0c0 1.09.883 1.973 1.972 1.973zM111.934 117.187a2.056 2.056 0 0 0 0-4.112c-1.134 0-2.053.921-2.053 2.056s.919 2.056 2.053 2.056zM125.757 104.646a1.973 1.973 0 1 0-.002-3.945 1.973 1.973 0 0 0 .002 3.945zM141.177 94.112a1.85 1.85 0 1 0-1.849-1.85 1.85 1.85 0 0 0 1.849 1.85zM157.894 86.156a2.056 2.056 0 0 0 0-4.112c-1.135 0-2.054.92-2.054 2.056 0 1.135.92 2.056 2.054 2.056zM175.583 80.156a1.809 1.809 0 0 0 0-3.618 1.808 1.808 0 1 0 0 3.618zM193.9 76.964a1.85 1.85 0 0 0 0-3.7 1.85 1.85 0 0 0-1.848 1.85 1.85 1.85 0 0 0 1.848 1.85zM212.489 76.397a1.932 1.932 0 0 0 0-3.866 1.932 1.932 0 0 0 0 3.866zM230.986 78.302a1.891 1.891 0 0 0 0-3.784 1.89 1.89 0 0 0 0 3.784zM249.034 83.134a2.219 2.219 0 0 0 2.217-2.22 2.22 2.22 0 1 0-2.217 2.22zM266.278 89.945c1.135 0 2.054-.921 2.054-2.056a2.055 2.055 0 1 0-2.054 2.056zM282.386 99.46a2.26 2.26 0 0 0 2.26-2.262 2.26 2.26 0 1 0-4.519 0 2.26 2.26 0 0 0 2.26 2.261zM297.043 110.716c1.135 0 2.054-.92 2.054-2.055a2.054 2.054 0 1 0-4.107 0c0 1.135.919 2.055 2.053 2.055zM309.963 124.15a2.096 2.096 0 0 0 0-4.194c-1.157 0-2.094.94-2.094 2.098 0 1.157.937 2.096 2.094 2.096zM320.896 139.172c1.134 0 2.054-.92 2.054-2.056a2.055 2.055 0 1 0-2.054 2.056zM329.628 156.104a2.547 2.547 0 0 0 2.546-2.549c0-1.408-1.14-2.55-2.546-2.55a2.548 2.548 0 0 0-2.546 2.55 2.547 2.547 0 0 0 2.546 2.549zM335.99 173.353a2.3 2.3 0 0 0 2.3-2.303 2.3 2.3 0 1 0-4.601 0 2.302 2.302 0 0 0 2.3 2.303zM339.857 191.688a2.425 2.425 0 0 0 2.423-2.426 2.424 2.424 0 1 0-4.847 0 2.425 2.425 0 0 0 2.424 2.426zM355.967 209.89c1.135 0 2.054-.92 2.054-2.056a2.054 2.054 0 1 0-4.107 0c0 1.136.919 2.056 2.053 2.056zM354.8 228.475c1.134 0 2.053-.92 2.053-2.056a2.055 2.055 0 1 0-2.054 2.056zM351.314 246.643a1.932 1.932 0 0 0 0-3.865 1.932 1.932 0 0 0 0 3.865zM345.565 264.64a2.22 2.22 0 0 0 0-4.44 2.22 2.22 0 0 0 0 4.44zM337.644 281.325a2.055 2.055 0 1 0 0-4.11 2.055 2.055 0 0 0 0 4.11zM327.677 297.13a2.137 2.137 0 1 0-.002-4.274 2.137 2.137 0 0 0 .002 4.274zM315.82 311.56a2.22 2.22 0 0 0 2.217-2.22 2.22 2.22 0 1 0-4.436 0 2.22 2.22 0 0 0 2.218 2.22zM302.258 324.02a1.932 1.932 0 1 0-.002-3.864 1.932 1.932 0 0 0 .002 3.863zM287.209 334.882a1.85 1.85 0 0 0 1.848-1.85 1.849 1.849 0 1 0-3.697 0 1.85 1.85 0 0 0 1.849 1.85zM270.907 344.223a2.22 2.22 0 0 0 2.218-2.22 2.22 2.22 0 1 0-4.436 0 2.22 2.22 0 0 0 2.218 2.22zM253.611 350.79a1.932 1.932 0 0 0 0-3.865 1.932 1.932 0 0 0 0 3.865zM235.593 355.544c1.134 0 2.053-.92 2.053-2.055a2.054 2.054 0 1 0-4.107 0c0 1.135.92 2.055 2.054 2.055zM217.137 357.878c1.134 0 2.053-.92 2.053-2.056a2.055 2.055 0 1 0-2.053 2.056zM198.534 357.878c1.135 0 2.054-.92 2.054-2.056a2.055 2.055 0 1 0-2.054 2.056zM180.078 355.38a1.89 1.89 0 1 0 0-3.781 1.89 1.89 0 0 0 0 3.781zM162.06 350.666a1.808 1.808 0 1 0-1.807-1.809c0 1 .81 1.81 1.808 1.81zM144.765 343.976a1.972 1.972 0 0 0 1.971-1.974 1.973 1.973 0 1 0-1.971 1.974zM128.463 334.8a1.768 1.768 0 0 0 0-3.536 1.767 1.767 0 1 0 0 3.536zM113.414 323.937a1.85 1.85 0 1 0-1.849-1.85 1.85 1.85 0 0 0 1.849 1.85zM99.853 311.19c1.02 0 1.848-.828 1.848-1.85a1.849 1.849 0 1 0-3.697 0 1.85 1.85 0 0 0 1.849 1.85zM87.995 296.718c.953 0 1.725-.772 1.725-1.726a1.726 1.726 0 1 0-3.45 0c0 .954.772 1.726 1.725 1.726zM78.027 280.873a1.603 1.603 0 1 0 0-3.206 1.603 1.603 0 0 0 0 3.206zM70.106 264.147a1.726 1.726 0 1 0 0-3.452 1.726 1.726 0 0 0 0 3.452zM64.358 246.19a1.479 1.479 0 1 0-1.48-1.48c.001.818.664 1.48 1.48 1.48zM60.873 227.982a1.562 1.562 0 1 0-.002-3.124 1.562 1.562 0 0 0 .002 3.124zM59.705 209.398a1.562 1.562 0 1 0-.003-3.125 1.562 1.562 0 0 0 .003 3.125zM60.873 190.772c.839 0 1.519-.682 1.519-1.522a1.52 1.52 0 1 0-1.52 1.522zM64.358 172.44a1.48 1.48 0 1 0-1.48-1.48c.001.817.664 1.48 1.48 1.48zM70.106 154.812a1.563 1.563 0 0 0 0-3.126 1.562 1.562 0 0 0 0 3.126zM78.027 137.798a1.398 1.398 0 1 0-.002-2.796 1.398 1.398 0 0 0 .002 2.796zM87.995 122.158a1.48 1.48 0 1 0-.002-2.959 1.48 1.48 0 0 0 .002 2.96zM99.853 107.81a1.48 1.48 0 1 0-.003-2.959 1.48 1.48 0 0 0 .003 2.96zM113.414 95.063a1.48 1.48 0 1 0-.002-2.959 1.48 1.48 0 0 0 .002 2.96zM128.463 84.323a1.685 1.685 0 1 0-.002-3.37 1.685 1.685 0 0 0 .002 3.37zM144.765 75.23a1.562 1.562 0 1 0-.003-3.125 1.562 1.562 0 0 0 .003 3.125zM162.06 68.498a1.685 1.685 0 1 0-.001-3.37 1.685 1.685 0 0 0 .002 3.37zM180.078 63.662a1.48 1.48 0 0 0 0-2.961 1.48 1.48 0 1 0 0 2.96zM198.534 61.41c.863 0 1.561-.7 1.561-1.563a1.561 1.561 0 1 0-3.121 0c0 .863.699 1.563 1.56 1.563zM217.137 61.41c.862 0 1.56-.7 1.56-1.563a1.561 1.561 0 1 0-3.121 0c0 .863.7 1.563 1.56 1.563zM235.593 63.743a1.562 1.562 0 1 0-1.56-1.562c-.001.863.697 1.562 1.56 1.562zM253.611 68.662a1.85 1.85 0 0 0 1.848-1.85 1.85 1.85 0 1 0-1.848 1.85zM270.907 75.394c.953 0 1.725-.773 1.725-1.727a1.726 1.726 0 1 0-3.45 0c0 .954.772 1.727 1.725 1.727zM287.209 84.365a1.726 1.726 0 1 0-1.726-1.727c0 .953.773 1.727 1.726 1.727zM302.258 95.146a1.562 1.562 0 0 0 0-3.125 1.562 1.562 0 1 0 0 3.125zM315.82 108.18c1.02 0 1.847-.828 1.847-1.85a1.849 1.849 0 1 0-3.697 0c0 1.022.828 1.85 1.85 1.85zM327.677 122.528a1.85 1.85 0 1 0-1.849-1.85 1.85 1.85 0 0 0 1.849 1.85zM337.644 138.168a1.767 1.767 0 1 0-1.766-1.768c0 .977.79 1.768 1.766 1.768zM345.565 155.223a1.973 1.973 0 0 0 0-3.948 1.973 1.973 0 0 0 0 3.948zM351.314 172.85a1.89 1.89 0 0 0 1.888-1.89 1.89 1.89 0 0 0-1.888-1.893 1.89 1.89 0 0 0 0 3.783zM354.8 191.265a2.014 2.014 0 1 0 0-4.03 2.014 2.014 0 0 0-2.014 2.015c0 1.113.901 2.015 2.013 2.015zM370.78 209.52a1.685 1.685 0 1 0-.002-3.37 1.685 1.685 0 0 0 .002 3.37zM369.718 228.114a1.685 1.685 0 1 0-.002-3.371 1.685 1.685 0 0 0 .002 3.37zM366.546 246.382c.884 0 1.601-.718 1.601-1.604a1.603 1.603 0 1 0-1.601 1.604zM361.304 264.127a1.48 1.48 0 1 0 0-2.959 1.48 1.48 0 0 0 0 2.96zM354.062 281.487a1.684 1.684 0 1 0-1.684-1.686c0 .932.754 1.686 1.684 1.686zM344.914 297.868a1.85 1.85 0 1 0-1.849-1.85 1.85 1.85 0 0 0 1.849 1.85zM333.978 312.729a1.643 1.643 0 1 0 0-3.287 1.643 1.643 0 0 0 0 3.287zM321.398 326.49a1.684 1.684 0 1 0-1.684-1.686c0 .932.754 1.686 1.684 1.686zM307.338 338.646a1.644 1.644 0 0 0 0-3.29 1.644 1.644 0 0 0 0 3.29zM291.98 349.075a1.562 1.562 0 0 0 0-3.125 1.562 1.562 0 1 0 0 3.126zM275.526 357.889a1.685 1.685 0 1 0-.002-3.37 1.685 1.685 0 0 0 .002 3.37zM258.188 364.44a1.48 1.48 0 1 0 0-2.96 1.48 1.48 0 0 0 0 2.96zM240.195 369.38a1.685 1.685 0 1 0-.002-3.37 1.685 1.685 0 0 0 .002 3.37zM221.78 372.03a1.685 1.685 0 1 0-.002-3.37 1.685 1.685 0 0 0 .002 3.37zM203.182 372.562a1.686 1.686 0 1 0-.001-3.37 1.686 1.686 0 0 0 .001 3.37zM184.646 370.927a1.644 1.644 0 1 0-.001-3.288 1.644 1.644 0 0 0 .001 3.288zM166.412 367.065a1.48 1.48 0 0 0 0-2.961 1.48 1.48 0 0 0 0 2.96zM148.718 361.474a1.644 1.644 0 0 0 0-3.29 1.644 1.644 0 0 0 0 3.29zM131.795 353.574a1.48 1.48 0 0 0 0-2.961 1.48 1.48 0 0 0 0 2.96zM115.863 344.038a1.562 1.562 0 1 0-.002-3.123 1.562 1.562 0 0 0 .002 3.123zM101.13 332.707a1.603 1.603 0 1 0-.001-3.205 1.603 1.603 0 0 0 0 3.205zM87.788 319.482a1.356 1.356 0 1 0-.002-2.713 1.356 1.356 0 0 0 .002 2.713zM76.011 304.982a1.274 1.274 0 1 0-.002-2.548 1.274 1.274 0 0 0 .002 2.548zM65.953 289.48a1.438 1.438 0 1 0-.001-2.877 1.438 1.438 0 0 0 0 2.876zM57.744 272.726a1.397 1.397 0 1 0-1.397-1.398c0 .772.626 1.398 1.397 1.398zM51.492 255.268a1.48 1.48 0 1 0-.003-2.96 1.48 1.48 0 0 0 .003 2.96zM47.278 236.84a1.192 1.192 0 1 0-.002-2.383 1.192 1.192 0 0 0 .002 2.384zM45.157 218.38c.68 0 1.232-.552 1.232-1.234a1.232 1.232 0 1 0-1.232 1.234zM45.157 199.757a1.233 1.233 0 1 0-.002-2.466 1.233 1.233 0 0 0 .002 2.466zM47.278 181.173a1.15 1.15 0 1 0-.003-2.302 1.15 1.15 0 0 0 .003 2.302zM51.492 163.238a1.356 1.356 0 1 0-.002-2.712 1.356 1.356 0 0 0 .002 2.712zM57.744 145.616a1.273 1.273 0 1 0-.001-2.547 1.273 1.273 0 0 0 .001 2.547zM65.953 129.027a1.397 1.397 0 1 0-.003-2.794 1.397 1.397 0 0 0 .003 2.794zM76.011 113.154a1.192 1.192 0 1 0 0-2.383 1.192 1.192 0 0 0 0 2.383zM87.788 98.82a1.275 1.275 0 1 0-.002-2.55 1.275 1.275 0 0 0 .002 2.55zM101.13 85.84a1.275 1.275 0 0 0 0-2.549c-.704 0-1.273.57-1.273 1.275 0 .704.57 1.275 1.273 1.275zM115.863 74.386a1.192 1.192 0 1 0 0-2.384 1.192 1.192 0 0 0 0 2.384zM131.795 64.686a1.11 1.11 0 1 0-.001-2.218 1.11 1.11 0 0 0 .001 2.218zM148.718 57.114a1.273 1.273 0 1 0 0-2.546 1.273 1.273 0 0 0 0 2.546zM166.412 51.442a1.356 1.356 0 1 0 0-2.712 1.356 1.356 0 0 0 0 2.712zM184.646 47.58a1.192 1.192 0 1 0 0-2.384 1.192 1.192 0 0 0 0 2.383zM203.182 46.027a1.234 1.234 0 1 0-.001-2.467 1.234 1.234 0 0 0 .001 2.467zM221.78 46.558a1.233 1.233 0 1 0-.001-2.465 1.233 1.233 0 0 0 .001 2.465zM240.195 49.168a1.192 1.192 0 1 0 0-2.383 1.192 1.192 0 0 0 0 2.383zM258.188 54.108a1.397 1.397 0 1 0-.001-2.795 1.397 1.397 0 0 0 .001 2.795zM275.526 60.782a1.316 1.316 0 0 0 0-2.632 1.315 1.315 0 0 0 0 2.632zM291.98 69.596a1.438 1.438 0 1 0-.001-2.876 1.438 1.438 0 0 0 .001 2.876zM307.338 79.944a1.274 1.274 0 1 0-.003-2.548 1.274 1.274 0 0 0 .003 2.548zM321.398 92.222a1.356 1.356 0 1 0-.001-2.713 1.356 1.356 0 0 0 0 2.713zM333.978 105.942a1.357 1.357 0 1 0-.002-2.713 1.357 1.357 0 0 0 .002 2.713zM344.914 121.214a1.562 1.562 0 0 0 0-3.124 1.562 1.562 0 1 0 0 3.125zM354.062 137.348a1.48 1.48 0 1 0-.001-2.96 1.48 1.48 0 0 0 0 2.96zM361.304 154.38c.749 0 1.355-.608 1.355-1.358a1.356 1.356 0 1 0-1.355 1.357zM366.546 172.454c.862 0 1.56-.7 1.56-1.563a1.561 1.561 0 1 0-3.121 0c0 .863.698 1.563 1.56 1.563zM369.718 190.886a1.644 1.644 0 1 0-1.643-1.645c0 .91.735 1.645 1.643 1.645zM385.594 209.192c.748 0 1.354-.608 1.354-1.358a1.356 1.356 0 1 0-1.354 1.358zM384.618 227.791a1.357 1.357 0 0 0 0-2.713 1.356 1.356 0 0 0 0 2.713zM381.708 246.105a1.275 1.275 0 0 0 0-2.55 1.274 1.274 0 0 0 0 2.55zM376.894 264.013a1.192 1.192 0 1 0-.003-2.385 1.192 1.192 0 0 0 .003 2.385zM370.226 281.606a1.397 1.397 0 1 0-1.397-1.398c0 .772.625 1.398 1.397 1.398zM361.778 298.078a1.274 1.274 0 1 0 0-2.548 1.274 1.274 0 0 0 0 2.548zM351.645 313.78c.749 0 1.355-.607 1.355-1.357a1.356 1.356 0 1 0-1.355 1.357zM339.935 328.337a1.438 1.438 0 1 0-.001-2.877 1.438 1.438 0 0 0 .001 2.877zM326.778 341.506a1.44 1.44 0 1 0-.001-2.878 1.44 1.44 0 0 0 .001 2.878zM312.32 353.145a1.356 1.356 0 1 0-1.356-1.357c0 .75.606 1.357 1.355 1.357zM296.714 363.206a1.274 1.274 0 1 0 0-2.548 1.274 1.274 0 0 0 0 2.548zM280.136 371.786a1.397 1.397 0 1 0 0-2.795 1.397 1.397 0 0 0 0 2.795zM262.766 378.254a1.191 1.191 0 1 0 0-2.382 1.191 1.191 0 0 0 0 2.382zM244.794 383.158a1.275 1.275 0 1 0-.003-2.55 1.275 1.275 0 0 0 .003 2.55zM226.417 386.153a1.356 1.356 0 1 0-.002-2.712 1.356 1.356 0 0 0 .002 2.712zM207.836 387.128a1.356 1.356 0 1 0-.003-2.713 1.356 1.356 0 0 0 .003 2.713zM189.255 386.112a1.314 1.314 0 1 0 0-2.629 1.314 1.314 0 0 0 0 2.629zM170.878 383.158a1.275 1.275 0 0 0 0-2.55 1.274 1.274 0 1 0 0 2.55zM152.906 378.131a1.068 1.068 0 1 0-.001-2.137 1.068 1.068 0 0 0 0 2.137zM135.535 371.58a1.192 1.192 0 1 0 0-2.383 1.192 1.192 0 0 0 0 2.383zM118.957 363a1.068 1.068 0 1 0-.001-2.136 1.068 1.068 0 0 0 0 2.137zM103.353 352.898a1.11 1.11 0 1 0-.002-2.219 1.11 1.11 0 0 0 .002 2.22zM88.893 341.218a1.15 1.15 0 1 0 0-2.301 1.15 1.15 0 0 0 0 2.301zM75.735 328.007a1.11 1.11 0 1 0 .001-2.218 1.11 1.11 0 0 0 0 2.218zM64.027 313.451a1.028 1.028 0 1 0-.003-2.055 1.028 1.028 0 0 0 .003 2.055zM53.893 297.995a1.191 1.191 0 1 0-1.191-1.192c0 .659.533 1.192 1.19 1.192zM45.446 281.236a1.028 1.028 0 1 0-.001-2.055 1.028 1.028 0 0 0 0 2.055zM38.778 263.93a1.11 1.11 0 1 0 0-2.22 1.11 1.11 0 0 0 0 2.22zM33.962 245.734a.904.904 0 1 0 0-1.807.904.904 0 0 0 0 1.807zM31.051 227.38a.945.945 0 1 0 0-1.89.945.945 0 0 0 0 1.89zM30.078 208.78a.946.946 0 1 0-.003-1.891.946.946 0 0 0 .003 1.892zM31.051 190.18a.945.945 0 1 0 0-1.889.945.945 0 0 0 0 1.89zM33.962 171.744a.903.903 0 1 0 0-1.807.903.903 0 0 0 0 1.807zM38.778 153.836a.986.986 0 1 0 0-1.973.986.986 0 0 0 0 1.973zM45.446 136.366a.905.905 0 1 0-.002-1.81.905.905 0 0 0 .002 1.81zM53.893 119.854a.987.987 0 1 0 0-1.973.987.987 0 0 0 0 1.973zM64.027 104.069a.821.821 0 1 0 0-1.643.821.821 0 0 0 0 1.643zM75.735 89.636a.863.863 0 1 0 0-1.727.863.863 0 0 0 0 1.727zM88.893 76.466a.863.863 0 1 0-.001-1.726.863.863 0 0 0 0 1.726zM103.353 64.704a.822.822 0 1 0-.002-1.644.822.822 0 0 0 .002 1.644zM118.957 54.724a.986.986 0 1 0 0-1.971.986.986 0 0 0 0 1.971zM135.535 46.187a.905.905 0 1 0-.001-1.81.905.905 0 0 0 .001 1.81zM152.906 39.594a.986.986 0 1 0 0-1.971.986.986 0 0 0 0 1.971zM170.878 34.692a.904.904 0 1 0 0-1.809.904.904 0 0 0 0 1.809zM189.255 31.82a.945.945 0 1 0 0-1.891.945.945 0 0 0 0 1.89zM207.836 30.845a.946.946 0 1 0-.002-1.892.946.946 0 0 0 .002 1.892zM226.417 31.82a.945.945 0 1 0-.001-1.891.945.945 0 0 0 0 1.89zM244.794 34.692a.904.904 0 1 0 0-1.809.904.904 0 0 0 0 1.809zM262.766 39.718a1.11 1.11 0 1 0 0-2.22 1.11 1.11 0 0 0 0 2.22zM280.136 46.31a1.028 1.028 0 1 0 0-2.055 1.028 1.028 0 0 0 0 2.055zM296.714 54.93a1.191 1.191 0 1 0 0-2.383 1.191 1.191 0 0 0 0 2.383zM312.32 64.91a1.027 1.027 0 1 0-.003-2.055 1.027 1.027 0 0 0 .002 2.055zM326.778 76.713a1.11 1.11 0 1 0-.001-2.22 1.11 1.11 0 0 0 .001 2.22zM339.935 89.923a1.15 1.15 0 1 0 0-2.301 1.15 1.15 0 0 0 0 2.301zM351.645 104.357a1.11 1.11 0 1 0-.002-2.22 1.11 1.11 0 0 0 .002 2.22zM361.778 119.936a1.07 1.07 0 1 0-.002-2.138 1.07 1.07 0 0 0 .002 2.138zM370.226 136.654a1.192 1.192 0 1 0-.001-2.384 1.192 1.192 0 0 0 0 2.384zM376.894 153.918a1.068 1.068 0 1 0-.001-2.137 1.068 1.068 0 0 0 0 2.137zM381.708 172.114a1.274 1.274 0 1 0 0-2.548 1.274 1.274 0 0 0 0 2.548zM384.618 190.551a1.315 1.315 0 1 0 .001-2.63 1.315 1.315 0 0 0 0 2.63zM400.406 208.862a1.028 1.028 0 1 0 0-2.055 1.028 1.028 0 0 0 0 2.055zM399.507 227.467a1.028 1.028 0 1 0 0-2.055 1.028 1.028 0 0 0 0 2.055zM396.82 245.857a.986.986 0 1 0-.002-1.973.986.986 0 0 0 .001 1.973zM392.366 263.9a.946.946 0 1 0-.002-1.89.946.946 0 0 0 .002 1.89zM386.19 281.635a1.11 1.11 0 1 0 0-2.22 1.11 1.11 0 0 0 0 2.22zM378.349 298.404a.987.987 0 0 0 0-1.974.986.986 0 0 0 0 1.974zM368.915 314.582a1.11 1.11 0 1 0-.001-2.22 1.11 1.11 0 0 0 .001 2.22zM357.978 329.734a1.192 1.192 0 1 0-.002-2.385 1.192 1.192 0 0 0 .002 2.385zM345.64 343.675a1.192 1.192 0 1 0-.002-2.384 1.192 1.192 0 0 0 .001 2.384zM332.014 356.195a1.027 1.027 0 1 0-.001-2.053 1.027 1.027 0 0 0 0 2.053zM317.228 367.422a.945.945 0 1 0 0-1.889.945.945 0 0 0 0 1.89zM301.422 377.291a.986.986 0 1 0 0-1.973.986.986 0 0 0 0 1.973zM284.742 385.67a1.11 1.11 0 1 0-.001-2.219 1.11 1.11 0 0 0 0 2.219zM267.343 392.11a.946.946 0 1 0-.002-1.891.946.946 0 0 0 .002 1.891zM249.39 397.045a.987.987 0 0 0 0-1.974.986.986 0 0 0 0 1.974zM231.047 400.222a1.028 1.028 0 1 0 0-2.055 1.028 1.028 0 0 0 0 2.055zM212.489 401.57a1.028 1.028 0 1 0 0-2.055 1.028 1.028 0 0 0 0 2.055zM193.887 401.12a1.027 1.027 0 1 0-.002-2.054 1.027 1.027 0 0 0 .002 2.055zM175.415 398.834a.986.986 0 1 0-.001-1.972.986.986 0 0 0 .001 1.972zM157.246 394.733a.904.904 0 1 0 0-1.809.904.904 0 0 0 0 1.809zM139.55 389.142c.59 0 1.067-.479 1.067-1.07a1.068 1.068 0 1 0-1.067 1.07zM122.49 381.456a.822.822 0 1 0-.822-.822c0 .455.368.822.822.822zM106.228 372.486a.904.904 0 1 0-.002-1.808.904.904 0 0 0 .002 1.808zM90.914 361.946a.945.945 0 1 0 0-1.889.945.945 0 0 0 0 1.89zM76.692 349.73a.74.74 0 1 0-.002-1.48.74.74 0 0 0 .002 1.48zM63.694 336.402a.74.74 0 1 0 0-1.48.74.74 0 0 0 0 1.48zM52.042 322.043a.904.904 0 1 0 0-1.808.904.904 0 0 0 0 1.808zM41.846 306.34a.781.781 0 1 0-.003-1.563.781.781 0 0 0 .003 1.563zM33.198 289.724a.658.658 0 1 0-.002-1.317.658.658 0 0 0 .002 1.317zM26.18 272.678a.863.863 0 1 0 0-1.726.863.863 0 0 0 0 1.726zM20.86 254.871a.905.905 0 1 0-.002-1.809.905.905 0 0 0 .003 1.81zM17.286 236.345a.657.657 0 1 0-.002-1.315.657.657 0 0 0 .002 1.315zM15.49 217.847a.7.7 0 1 0-.002-1.398.7.7 0 0 0 .002 1.398zM15.49 199.22a.699.699 0 1 0-.001-1.397.699.699 0 0 0 0 1.398zM17.286 180.64a.657.657 0 1 0-.002-1.315.657.657 0 0 0 .002 1.315zM20.86 162.526a.821.821 0 1 0 0-1.643.821.821 0 0 0 0 1.643zM26.18 144.595a.74.74 0 1 0 0-1.48.74.74 0 0 0 0 1.48zM33.198 127.262a.658.658 0 1 0 0-1.316.658.658 0 0 0 0 1.316zM41.846 110.851a.74.74 0 1 0-.001-1.48.74.74 0 0 0 0 1.48zM52.042 95.353a.821.821 0 1 0 0-1.643.821.821 0 0 0 0 1.643zM63.694 80.666a.658.658 0 1 0 0-1.315.658.658 0 0 0 0 1.315zM76.692 67.378a.699.699 0 1 0 0-1.397.699.699 0 0 0 0 1.397zM90.914 55.326a.657.657 0 1 0 0-1.314.657.657 0 0 0 0 1.314zM106.228 44.705a.616.616 0 1 0 0-1.233.616.616 0 0 0 0 1.233zM122.49 35.776a.74.74 0 1 0 0-1.48.74.74 0 0 0 0 1.48zM139.55 28.338a.74.74 0 1 0-.001-1.48.74.74 0 0 0 0 1.48zM157.246 22.664a.821.821 0 1 0 0-1.643.821.821 0 0 0 0 1.643zM175.415 18.48a.657.657 0 1 0 0-1.314.657.657 0 0 0 0 1.314zM193.887 16.235a.657.657 0 1 0-.001-1.315.657.657 0 0 0 .001 1.315zM212.489 15.826a.699.699 0 1 0 0-1.397.699.699 0 0 0 0 1.397zM231.047 17.134a.658.658 0 1 0 0-1.315.658.658 0 0 0 0 1.315zM249.39 20.27a.658.658 0 1 0-.002-1.315.658.658 0 0 0 .002 1.315zM267.343 25.369a.862.862 0 1 0 0-1.725.862.862 0 0 0 0 1.725zM284.742 31.892a.782.782 0 1 0-.002-1.563.782.782 0 0 0 .002 1.563zM301.422 40.27a.904.904 0 1 0 0-1.809.904.904 0 0 0 0 1.809zM317.228 49.851a.658.658 0 1 0 0-1.315.658.658 0 0 0 0 1.315zM332.014 61.242a.74.74 0 1 0-.002-1.48.74.74 0 0 0 .002 1.48zM345.64 74.133a.946.946 0 1 0-.003-1.892.946.946 0 0 0 .002 1.892zM357.978 88.074a.945.945 0 1 0 0-1.89.945.945 0 0 0 0 1.89zM368.915 103.102a.905.905 0 1 0-.001-1.81.905.905 0 0 0 .001 1.81zM378.349 119.075a.822.822 0 1 0 0-1.644.822.822 0 0 0 0 1.644zM386.19 136.09a.945.945 0 1 0-.002-1.89.945.945 0 0 0 .002 1.89zM392.366 153.537a.822.822 0 1 0-.001-1.644.822.822 0 0 0 0 1.644zM396.82 171.786a.986.986 0 1 0-.002-1.972.986.986 0 0 0 .001 1.972zM399.507 190.258a1.028 1.028 0 1 0 0-2.055 1.028 1.028 0 0 0 0 2.055zM415.22 208.616a.781.781 0 1 0-.001-1.562.781.781 0 0 0 0 1.562zM414.385 227.225a.78.78 0 1 0-.002-1.562.78.78 0 0 0 .002 1.562zM411.887 245.642a.74.74 0 1 0 0-1.48.74.74 0 0 0 0 1.48zM407.746 263.72a.658.658 0 1 0-.001-1.315.658.658 0 0 0 .001 1.315zM401.996 281.64a.863.863 0 1 0-.001-1.725.863.863 0 0 0 .001 1.726zM394.682 298.646a.74.74 0 1 0 0-1.48.74.74 0 0 0 0 1.48zM385.864 315.172a.862.862 0 1 0 0-1.725.862.862 0 0 0 0 1.725zM375.613 330.8a.945.945 0 1 0-.001-1.89.945.945 0 0 0 0 1.89zM364.01 345.2a.781.781 0 1 0 0-1.563.781.781 0 0 0 0 1.562zM351.151 358.704a.822.822 0 1 0-.002-1.645.822.822 0 0 0 .002 1.645zM337.138 370.918a.78.78 0 1 0-.001-1.56.78.78 0 0 0 0 1.56zM322.083 381.826a.74.74 0 1 0-.002-1.48.74.74 0 0 0 .002 1.48zM306.109 391.503a.863.863 0 1 0-.002-1.726.863.863 0 0 0 .002 1.726zM289.342 399.462a.74.74 0 1 0 0-1.48.74.74 0 0 0 0 1.48zM271.92 406.213a.946.946 0 1 0-.001-1.892.946.946 0 0 0 .002 1.892zM253.983 410.962a.74.74 0 1 0 0-1.479.74.74 0 0 0 0 1.48zM235.674 414.33a.781.781 0 1 0 0-1.562.781.781 0 0 0 0 1.562zM217.14 416a.781.781 0 1 0 0-1.563.781.781 0 0 0 0 1.562zM198.531 416a.781.781 0 1 0 0-1.563.781.781 0 0 0 0 1.562zM179.998 414.247a.698.698 0 1 0-.001-1.396.698.698 0 0 0 0 1.396zM161.689 410.88a.657.657 0 1 0-.001-1.315.657.657 0 0 0 0 1.315zM143.75 406.089a.822.822 0 1 0 0-1.644.822.822 0 0 0 0 1.644zM126.329 399.42a.699.699 0 1 0 0-1.397.699.699 0 0 0 0 1.398zM109.563 391.462a.822.822 0 1 0 0-1.644.822.822 0 0 0 0 1.644zM93.589 381.62a.534.534 0 1 0-.001-1.068.534.534 0 0 0 0 1.068zM78.534 370.713a.575.575 0 1 0 0-1.15.575.575 0 0 0 0 1.15zM64.52 358.457a.575.575 0 1 0 0-1.15.575.575 0 0 0 0 1.15zM51.66 345.158a.74.74 0 1 0 0-1.479.74.74 0 0 0 0 1.479zM40.058 330.512a.657.657 0 1 0 0-1.314.657.657 0 0 0 0 1.314zM29.807 314.884a.575.575 0 1 0 0-1.15.575.575 0 0 0 0 1.15zM20.989 298.563a.658.658 0 1 0 0-1.315.658.658 0 0 0 0 1.315zM13.675 281.312a.534.534 0 1 0 0-1.069.534.534 0 0 0 0 1.069zM7.925 263.678a.616.616 0 1 0 0-1.231.616.616 0 0 0 0 1.231zM3.784 245.313a.411.411 0 1 0 0-.822.411.411 0 0 0 0 .822zM1.286 226.895a.452.452 0 1 0 0-.904.452.452 0 0 0 0 .904zM.451 208.287a.452.452 0 1 0 0-.904.452.452 0 0 0 0 .904zM1.286 189.638a.41.41 0 1 0 0-.821.41.41 0 0 0 0 .82zM3.784 171.18a.411.411 0 1 0 0-.823.411.411 0 0 0 0 .822zM7.925 153.1a.493.493 0 1 0 0-.985.493.493 0 0 0 0 .986zM13.675 135.303a.411.411 0 1 0 0-.822.411.411 0 0 0 0 .822zM20.989 118.298a.534.534 0 1 0 0-1.068.534.534 0 0 0 0 1.068zM29.807 101.772a.41.41 0 1 0 0-.822.41.41 0 0 0 0 .822zM40.058 86.309a.493.493 0 1 0 0-.987.493.493 0 0 0 0 .987zM51.66 71.745a.493.493 0 1 0 0-.986.493.493 0 0 0 0 .986zM64.52 58.158a.37.37 0 1 0 0-.74.37.37 0 0 0 0 .74zM78.534 45.862a.329.329 0 1 0 0-.658.329.329 0 0 0 0 .658zM93.589 34.872a.288.288 0 1 0-.001-.575.288.288 0 0 0 0 .575zM109.563 25.565a.534.534 0 1 0 0-1.069.534.534 0 0 0 0 1.069zM126.329 17.36a.41.41 0 1 0-.001-.823.41.41 0 0 0 0 .822zM143.75 10.897a.493.493 0 1 0 0-.986.493.493 0 0 0 0 .986zM161.689 6.023a.575.575 0 1 0 0-1.149.575.575 0 0 0 0 1.15zM179.998 2.533a.411.411 0 1 0 0-.822.411.411 0 0 0 0 .822zM198.531.904a.452.452 0 1 0 0-.904.452.452 0 0 0 0 .904zM217.14.904a.452.452 0 1 0 0-.904.452.452 0 0 0 0 .904zM235.674 2.574a.452.452 0 1 0 0-.904.452.452 0 0 0 0 .904zM253.983 6.106a.657.657 0 1 0-.001-1.315.657.657 0 0 0 .001 1.315zM271.92 11.02a.616.616 0 1 0 0-1.233.616.616 0 0 0 0 1.233zM289.342 17.4a.452.452 0 1 0 0-.904.452.452 0 0 0 0 .905zM306.109 25.606a.575.575 0 1 0 0-1.15.575.575 0 0 0 0 1.15zM322.083 35.037a.452.452 0 1 0-.001-.904.452.452 0 0 0 .001.904zM337.138 46.067a.534.534 0 1 0-.002-1.068.534.534 0 0 0 .002 1.068zM351.151 58.364a.575.575 0 1 0 0-1.15.575.575 0 0 0 0 1.15zM364.01 71.827a.575.575 0 1 0 0-1.15.575.575 0 0 0 0 1.15zM375.613 86.555a.74.74 0 1 0-.001-1.48.74.74 0 0 0 0 1.48zM385.864 102.06a.699.699 0 1 0 0-1.397.699.699 0 0 0 0 1.397zM394.682 118.38a.616.616 0 1 0 0-1.232.616.616 0 0 0 0 1.233zM401.996 135.591a.699.699 0 1 0 0-1.397.699.699 0 0 0 0 1.397zM407.746 153.183a.575.575 0 1 0 0-1.15.575.575 0 0 0 0 1.15zM411.887 171.466a.698.698 0 1 0 0-1.395.698.698 0 0 0 0 1.395zM414.385 189.966a.74.74 0 1 0-.001-1.479.74.74 0 0 0 0 1.48z"></path> </g> </svg>